<?xml version="1.0" standalone="no"?>
<!DOCTYPE svg PUBLIC "-//W3C//DTD SVG 1.1//EN" "http://www.w3.org/Graphics/SVG/1.1/DTD/svg11.dtd" >
<svg xmlns="http://www.w3.org/2000/svg">
<metadata>
This is a custom SVG webfont generated by Font Squirrel.
Copyright   : Font software Copyright 1993 1994 2001 Adobe Systems Incorporated Typeface designs Copyright 2005 International Typeface Corporation All rights reserved
Designer    : Herb Lubalin and Tom Carnase
Foundry URL : httpwwwitcfontscom
</metadata>
<defs>
<font id="ITCAvantGardeGothicProXLt" horiz-adv-x="1136" >
<font-face units-per-em="2048" ascent="1516" descent="-532" />
<missing-glyph horiz-adv-x="567" />
<glyph unicode=" "  horiz-adv-x="567" />
<glyph unicode="&#x09;" horiz-adv-x="567" />
<glyph unicode="&#xa0;" horiz-adv-x="567" />
<glyph unicode="!" horiz-adv-x="530" d="M236 0v166h61v-166h-61zM236 340v1176h61v-1176h-61z" />
<glyph unicode="&#x22;" horiz-adv-x="681" d="M193 909v607h61v-607h-61zM428 909v607h61v-607h-61z" />
<glyph unicode="#" d="M37 555l6 47h309l39 281h-309l8 47h309l64 452h49l-63 -452h292l64 452h49l-63 -452h309l-6 -47h-312l-39 -281h312l-6 -47h-310l-69 -492h-49l67 492h-293l-67 -492h-52l70 492h-309zM401 602h293l41 281h-293z" />
<glyph unicode="$" d="M170 465h61q14 -162 118 -245t231 -83q137 0 232 95.5t95 230.5q0 57 -13 104t-44 81t-57.5 56.5t-81 43t-85 30.5t-94.5 29q-303 84 -303 338q0 139 87 235.5t229 114.5v164h61v-164q160 -20 240 -115.5t90 -216.5h-62q-16 141 -108 209t-186 68q-111 0 -200 -82 t-89 -213q0 -59 19.5 -106.5t45 -75t77.5 -52t87 -37t105 -30.5q49 -14 78.5 -24.5t87 -41t90 -67.5t60.5 -102.5t28 -147.5q0 -145 -102.5 -259t-260.5 -124v-195h-61v195q-156 14 -261.5 120.5t-113.5 266.5z" />
<glyph unicode="%" horiz-adv-x="1472" d="M45 1208.5q0 143.5 94 238.5t239.5 95t240 -95t94.5 -238.5t-94.5 -239t-240 -95.5t-239.5 95.5t-94 239zM102 1208q0 -123 77 -202.5t200 -79.5t199.5 79.5t76.5 202.5t-76.5 203t-199.5 80t-200 -80t-77 -203zM233 0l936 1516h66l-936 -1516h-66zM760 307.5 q0 143.5 95 238.5t238.5 95t238.5 -95t95 -238.5t-95 -239t-238.5 -95.5t-238.5 95.5t-95 239zM817 307q0 -123 77 -202.5t200 -79.5t199.5 79.5t76.5 202.5t-76.5 203t-199.5 80t-200 -80t-77 -203z" />
<glyph unicode="&#x26;" horiz-adv-x="1476" d="M113 397q0 94 37.5 174t102 137.5t128 95.5t137.5 66l-78 84q-72 76 -101.5 131.5t-31.5 135.5v4q0 129 92.5 223t227.5 94q139 0 237.5 -98t98.5 -232q0 -61 -21.5 -111t-47.5 -82t-82 -66.5t-89 -51t-107 -49.5l377 -385l256 489h68l-279 -534l394 -404l-43 -41 l-379 388l-49 -97q-33 -66 -58.5 -104.5t-75 -89.5t-119 -76t-161.5 -25q-193 0 -313.5 129t-120.5 295zM174 395q0 -147 104.5 -255.5t274.5 -108.5q119 0 201 58t153 206l56 115l-404 417q-219 -96 -302 -202.5t-83 -229.5zM369 1229q0 -115 104 -223l102 -109 q188 82 257 142.5t69 174.5q0 106 -78 188.5t-194 82.5q-119 0 -189.5 -81t-70.5 -175z" />
<glyph unicode="'" horiz-adv-x="454" d="M197 909v607h61v-607h-61z" />
<glyph unicode="(" horiz-adv-x="870" d="M211 494q0 322 164 607t430 441v-72q-229 -141 -379 -405t-150 -571q0 -309 149.5 -573.5t379.5 -405.5v-76q-176 115 -285 237q-145 168 -227 379.5t-82 438.5z" />
<glyph unicode=")" horiz-adv-x="870" d="M66 -492q229 143 378.5 407.5t149.5 572t-150.5 572.5t-377.5 406v76q176 -115 284 -237q309 -356 309 -818q0 -322 -163.5 -608.5t-429.5 -439.5v69z" />
<glyph unicode="*" horiz-adv-x="1173" d="M309 1087l219 127l-219 123l31 54l217 -127v252h59v-252l218 127l28 -52l-215 -125l219 -129l-28 -49l-222 125v-252h-59v254l-217 -127z" />
<glyph unicode="+" horiz-adv-x="1228" d="M102 483v58h484v485h57v-485h483v-58h-483v-483h-57v483h-484z" />
<glyph unicode="," horiz-adv-x="567" d="M125 -147l129 315h65l-129 -315h-65z" />
<glyph unicode="-" horiz-adv-x="544" d="M0 537v59h545v-59h-545z" />
<glyph unicode="." horiz-adv-x="567" d="M254 0v166h61v-166h-61z" />
<glyph unicode="/" horiz-adv-x="1060" d="M137 -205l719 1721h68l-719 -1721h-68z" />
<glyph unicode="0" d="M80 455v587q0 125 40 220.5t96 146.5t128 83t123 41t94 9q207 0 350.5 -134t143.5 -347v-606q0 -111 -38 -199t-93.5 -139t-125 -85t-126 -46.5t-101.5 -12.5q-74 0 -152.5 25t-157.5 76t-130 150.5t-51 230.5zM141 455q0 -197 126 -311.5t300 -114.5q49 0 102.5 12 t112 43t104.5 78t76.5 122.5t30.5 170.5v606q0 168 -111.5 297t-320.5 129q-174 0 -297 -116t-123 -322v-594z" />
<glyph unicode="1" d="M227 1460v56h398v-1516h-62v1460h-336z" />
<glyph unicode="2" d="M117 0v55l651 666q201 203 203 366v11q0 170 -110.5 279.5t-274.5 109.5q-158 0 -268.5 -112.5t-114.5 -321.5h-62q4 242 140.5 365.5t312.5 123.5q186 0 312 -127t126 -319v-19q-4 -106 -58 -197.5t-165 -203.5l-610 -621h833v-55h-915z" />
<glyph unicode="3" d="M80 440h61q6 -199 129 -305t277 -106q180 0 289.5 116.5t109.5 286.5q0 152 -110.5 280t-321.5 128h-82v55h80q86 0 151.5 25.5t99.5 60.5t53.5 81t24.5 74.5t5 55.5q0 129 -81 212t-206 83q-131 0 -212 -83t-89 -206h-61q10 164 115.5 254t240.5 90q145 0 249.5 -94 t104.5 -258q0 -96 -54 -189.5t-159 -128.5v-4q90 -33 157 -87t98.5 -116.5t45 -116.5t13.5 -104q0 -211 -130 -341t-337 -130q-182 0 -320.5 128t-140.5 339z" />
<glyph unicode="4" d="M35 295v53l770 1168h84v-1166h153v-55h-153v-295h-62v295h-792zM106 350h721v1092h-4z" />
<glyph unicode="5" d="M43 444h61q23 -193 155 -304t290 -111q180 0 312 135t132 323q0 195 -133 330t-311 135q-203 0 -346 -176l-53 15l139 725h680v-56h-631l-111 -571q158 119 326 119q215 0 358.5 -154t143.5 -360q0 -219 -151.5 -370t-356.5 -151q-170 0 -324.5 123t-179.5 348z" />
<glyph unicode="6" d="M68 469q0 190 129 379l458 668h70l-406 -590l5 -2q117 78 249 77q203 0 348.5 -144t145.5 -365q0 -211 -143.5 -365t-356.5 -154q-125 0 -224 47.5t-157.5 122t-88 158.5t-29.5 168zM129 473q0 -184 119 -314t317 -130q190 0 315.5 134t125.5 322q0 217 -133.5 339 t-297.5 122q-72 0 -145.5 -26.5t-143 -79t-113.5 -148.5t-44 -219z" />
<glyph unicode="7" d="M178 1460v56h805v-56l-676 -1460h-63l674 1460h-740z" />
<glyph unicode="8" d="M106 428q0 150 88.5 267.5t229.5 162.5q-98 41 -159.5 132t-61.5 196q0 143 107.5 249.5t256.5 106.5q152 0 258.5 -103.5t106.5 -252.5q0 -104 -61.5 -195.5t-159.5 -132.5q139 -43 228 -160.5t89 -269.5q-2 -190 -136 -322.5t-324.5 -132.5t-325 132.5t-136.5 322.5z M168 428q0 -168 115.5 -283.5t283.5 -115.5t284 115.5t116 283.5t-116 283.5t-284 115.5t-283.5 -115.5t-115.5 -283.5zM264 1184q0 -127 88 -214t215 -87t215 87t88 214t-88 215t-215 88t-215 -88t-88 -215z" />
<glyph unicode="9" d="M70 1024q0 211 143 364.5t356 153.5q125 0 224.5 -47t158 -122t88 -159t29.5 -167q0 -190 -129 -379l-459 -668h-69l405 590l-4 2q-41 -29 -106 -53q-74 -25 -144 -25q-203 0 -348 144.5t-145 365.5zM131 1030q0 -217 133 -339t297 -122q72 0 145.5 27t143.5 79 t114 148.5t44 218.5q0 184 -119 314.5t-318 130.5q-190 0 -315 -134.5t-125 -322.5z" />
<glyph unicode=":" horiz-adv-x="567" d="M254 0v166h61v-166h-61zM254 920v165h61v-165h-61z" />
<glyph unicode=";" horiz-adv-x="567" d="M125 -147l129 315h65l-129 -315h-65zM252 920v165h61v-165h-61z" />
<glyph unicode="&#x3c;" horiz-adv-x="1228" d="M102 481v66l1024 481v-63l-956 -451l956 -451v-63z" />
<glyph unicode="=" horiz-adv-x="1228" d="M102 285v57h1024v-57h-1024zM102 682v57h1024v-57h-1024z" />
<glyph unicode="&#x3e;" horiz-adv-x="1228" d="M102 0v63l957 451l-957 451v63l1024 -481v-66z" />
<glyph unicode="?" horiz-adv-x="1097" d="M82 1112q4 117 51 205t115.5 134t138.5 67.5t135 21.5q176 0 305 -122t129 -308q0 -57 -18 -110.5t-63.5 -109.5t-72 -84t-89.5 -89q-70 -68 -107 -143.5t-42 -117.5t-5 -106v-10h-61q2 86 10 137t51 134t125 163q8 8 51 50t53.5 53.5t39 47.5t37.5 58.5t19.5 58 t10.5 72.5v6q0 147 -106.5 252t-264.5 105q-86 0 -167 -33t-145.5 -120t-68.5 -212h-61zM498 0v166h59v-166h-59z" />
<glyph unicode="@" horiz-adv-x="1630" d="M84 748q0 330 227.5 562t558.5 232q127 0 250 -42t225.5 -118.5t165 -201.5t62.5 -277q0 -141 -53.5 -258t-133 -181.5t-156.5 -99t-138 -34.5q-20 0 -41 4t-51.5 17.5t-50 47t-19.5 84.5h-4q-94 -145 -260 -145q-31 0 -65 11t-71.5 38t-61.5 83t-24 134 q0 215 133.5 395.5t301.5 180.5q106 0 156 -53.5t61 -116.5h4l47 137h57l-196 -557q-27 -76 -27 -109q0 -98 113 -98q57 0 127.5 34t137 95t112 164.5t45.5 224.5q0 143 -57.5 259t-152 185.5t-206 106.5t-226.5 37q-301 0 -517 -209t-216 -532q0 -213 102.5 -380 t264.5 -254t346 -87q180 0 358.5 91t268.5 265h51q-59 -139 -181 -236.5t-247 -135.5t-248 -38q-326 0 -549 224.5t-223 550.5zM502 604q0 -117 51 -165t117 -48q70 0 126 29t92 80t51 83.5t34 80.5l57 149q33 82 33 127v6q-2 92 -60.5 136t-119.5 44q-133 0 -257 -157.5 t-124 -364.5z" />
<glyph unicode="A" horiz-adv-x="1406" d="M14 0l650 1516h79l650 -1516h-66l-227 528h-793l-227 -528h-66zM334 584h739l-371 874z" />
<glyph unicode="B" horiz-adv-x="1105" d="M158 0v1516h321q162 0 266 -56q178 -96 179 -325q0 -238 -209 -330v-4q96 -29 162.5 -83t94 -118.5t37 -110t9.5 -83.5q0 -276 -240 -371q-84 -35 -241 -35h-379zM219 55h320q135 0 217 33q201 82 200 315q0 113 -55 198t-149 128q-86 37 -258 37h-275v-711zM219 821h275 q143 0 215 39q154 86 153 283q0 96 -45 169.5t-108 102.5q-78 45 -230 45h-260v-639z" />
<glyph unicode="C" horiz-adv-x="1609" d="M84 758q0 338 228 562q226 222 552 222h6q223 0 395.5 -107.5t268.5 -256.5h-72q-29 41 -71.5 84t-116.5 99t-180.5 91t-223.5 35h-5q-299 0 -509 -207q-211 -209 -211 -522q0 -311 211 -520t514 -209q123 0 232.5 36.5t183.5 94t112 95.5t64 75h70q-86 -145 -263 -251 t-399 -106q-330 0 -558 223.5t-228 561.5z" />
<glyph unicode="D" horiz-adv-x="1435" d="M158 0v1516h428q358 0 561 -201t203 -557.5t-203 -557t-561 -200.5h-428zM219 55h367q330 0 516 185.5t186 513.5q0 332 -185 519t-517 187h-367v-1405z" />
<glyph unicode="E" horiz-adv-x="1120" d="M158 0v1516h831v-56h-770v-669h770v-56h-770v-680h770v-55h-831z" />
<glyph unicode="F" horiz-adv-x="976" d="M158 0v1516h743v-56h-682v-669h682v-56h-682v-735h-61z" />
<glyph unicode="G" horiz-adv-x="1746" d="M84 758q0 338 228.5 561t557.5 223q211 0 398.5 -97t290.5 -265h-74q-233 307 -615 307q-303 0 -514 -209t-211 -520.5t211 -520t514 -208.5q276 0 483.5 166.5t250.5 390.5h-904v55h977q-33 -279 -263 -473.5t-544 -194.5q-330 0 -558 223.5t-228 561.5z" />
<glyph unicode="H" horiz-adv-x="1286" d="M158 0v1516h61v-725h848v725h61v-1516h-61v735h-848v-735h-61z" />
<glyph unicode="I" horiz-adv-x="378" d="M158 0v1516h61v-1516h-61z" />
<glyph unicode="J" horiz-adv-x="927" d="M12 289h68q18 -80 59 -136.5t90.5 -81t88 -33.5t71.5 -9h4q111 2 184.5 54t100.5 124q33 84 33 227v1082h61v-1082q0 -164 -37 -250q-35 -80 -104 -133q-104 -78 -242 -78q-135 0 -242.5 83t-134.5 233z" />
<glyph unicode="K" horiz-adv-x="1097" d="M186 0v1516h62v-1024h4l772 1024h74l-566 -748l566 -768h-74l-530 719l-246 -324v-395h-62z" />
<glyph unicode="L" horiz-adv-x="866" d="M158 0v1516h61v-1461h641v-55h-702z" />
<glyph unicode="M" horiz-adv-x="1910" d="M158 0v1516h98l700 -1418l699 1418h96v-1516h-61v1454h-4l-713 -1454h-35l-715 1454h-4v-1454h-61z" />
<glyph unicode="N" horiz-adv-x="1511" d="M158 0v1516h92l1038 -1434h4v1434h62v-1516h-78l-1053 1454h-4v-1454h-61z" />
<glyph unicode="O" horiz-adv-x="1742" d="M84 758q0 338 228.5 561t558 223t558 -223t228.5 -561t-228.5 -561.5t-558 -223.5t-558 223.5t-228.5 561.5zM145 757.5q0 -311.5 211 -520t514.5 -208.5t514 208.5t210.5 520t-210.5 520.5t-514 209t-514.5 -209t-211 -520.5z" />
<glyph unicode="P" horiz-adv-x="1046" d="M137 0v1516h352q141 0 224.5 -18.5t154.5 -72.5q68 -49 111 -143t43 -196.5t-43 -196.5t-111 -144q-72 -53 -155.5 -71.5t-223.5 -18.5h-290v-655h-62zM199 711h293q129 0 204.5 18.5t139.5 65.5q55 39 90 120.5t35 167.5q0 90 -35 172t-90 121q-63 47 -139 65.5 t-205 18.5h-293v-749z" />
<glyph unicode="Q" horiz-adv-x="1806" d="M115 758q0 338 228 561t558 223t558.5 -223t228.5 -561t-263 -594q164 -96 387 -127v-64q-113 14 -196.5 39t-121.5 44.5t-120 68.5q-209 -152 -467 -152q-233 0 -417.5 110t-279.5 288t-95 387zM176 758q0 -139 43 -254q188 61 352 61q246 0 451 -110q49 -27 104.5 -66 t249.5 -188q250 215 250 557q0 311 -211 520t-514 209t-514 -209t-211 -520zM244 444q51 -106 124.5 -186t144.5 -122t151.5 -67.5t136 -32.5t108.5 -7q127 0 237.5 41t180.5 94q-18 12 -79.5 58t-115 87t-55.5 43q-240 158 -514 158q-145 0 -319 -66z" />
<glyph unicode="R" horiz-adv-x="1134" d="M137 0v1516h346q287 0 404 -64q92 -49 154.5 -160.5t64.5 -242.5v-11q0 -76 -25.5 -151.5t-76 -146t-140.5 -116.5t-205 -51l-59 -2l408 -571h-78l-445 627h95q119 0 192.5 18.5t142.5 77.5q129 135 129 324q0 102 -48 199t-132 153q-63 41 -143 51t-238 10h-284v-1460 h-62z" />
<glyph unicode="S" horiz-adv-x="1060" d="M92 383h62q12 -102 56 -177t102.5 -111t111.5 -51t104 -15q150 0 265.5 102t115.5 258q0 80 -28.5 142.5t-63.5 98.5t-98.5 66.5t-98 41t-98 26.5t-95.5 25.5t-98.5 41t-103.5 67.5t-67.5 100.5t-32.5 146.5v6q0 178 120 283.5t292 105.5q145 0 256.5 -89t134.5 -263h-62 q-55 297 -334 297q-147 0 -246.5 -92.5t-99.5 -237.5q0 -70 23.5 -124t56.5 -87t95.5 -62.5t107.5 -44t125 -34.5q166 -41 250 -111q127 -109 127 -295q0 -182 -133 -303t-308 -121q-72 0 -143.5 25t-136 72t-107.5 129t-51 184z" />
<glyph unicode="T" horiz-adv-x="907" d="M10 1460v56h885v-56h-412v-1460h-61v1460h-412z" />
<glyph unicode="U" horiz-adv-x="1239" d="M156 532v984h61v-984q0 -92 3 -137t24.5 -106.5t66.5 -120.5q49 -63 134 -101t178 -38q88 0 172 37.5t133 101.5q45 59 66.5 120.5t24.5 106.5t3 137v984h61v-984q0 -70 -4 -116.5t-19.5 -117.5t-55 -129t-103.5 -103q-129 -92 -283 -93q-152 0 -280 93q-63 45 -103 103 t-55.5 129t-19.5 117.5t-4 116.5z" />
<glyph unicode="V" horiz-adv-x="1363" d="M14 1516h70l598 -1414l600 1414h68l-648 -1516h-43z" />
<glyph unicode="W" horiz-adv-x="1818" d="M25 1516h65l406 -1432h4l387 1432h43l391 -1432h4l406 1432h63l-434 -1516h-80l-371 1354h-4l-366 -1354h-82z" />
<glyph unicode="X" d="M16 0l516 770l-497 746h74l456 -689l461 689h72l-498 -746l520 -770h-71l-484 717l-481 -717h-68z" />
<glyph unicode="Y" horiz-adv-x="1134" d="M31 1516h67l469 -924l467 924h70l-506 -994v-522h-61v522z" />
<glyph unicode="Z" horiz-adv-x="1021" d="M12 1460v56h955l-826 -1461h869v-55h-969l825 1460h-854z" />
<glyph unicode="[" horiz-adv-x="870" d="M365 -31v1045q0 47 2 79.5t20.5 101.5t51 122t101 116.5t165.5 108.5v-74q-274 -135 -275 -454v-1045q0 -317 275 -452v-74q-340 161 -340 526z" />
<glyph unicode="\" horiz-adv-x="1060" d="M137 1516h68l719 -1721h-68z" />
<glyph unicode="]" horiz-adv-x="870" d="M166 -483q274 135 274 452v1045q0 319 -274 454v74q340 -166 340 -528v-1045q0 -365 -340 -526v74z" />
<glyph unicode="^" horiz-adv-x="1228" d="M229 768l353 748h65l352 -748h-65l-320 680l-319 -680h-66z" />
<glyph unicode="_" horiz-adv-x="1024" d="M0 -154h1024v-102h-1024v102z" />
<glyph unicode="`" d="M295 1522l29 47l485 -283l-27 -47z" />
<glyph unicode="a" horiz-adv-x="1380" d="M84 543q0 233 158.5 401t412.5 168q184 0 321.5 -92t182.5 -211h4v276h58v-1085h-58v270h-4q-72 -139 -203 -218t-301 -79q-256 0 -413.5 169.5t-157.5 400.5zM278.5 183.5q137.5 -156.5 383.5 -156.5q221 0 364 150.5t143 365.5q0 221 -147.5 368.5t-366.5 147.5 q-217 0 -366 -146q-147 -143 -148 -364q0 -209 137.5 -365.5z" />
<glyph unicode="b" horiz-adv-x="1380" d="M160 0v1516h57v-707h4q63 131 191.5 217t312.5 86q256 0 413.5 -168t157.5 -401q0 -231 -157.5 -400.5t-413.5 -169.5q-170 0 -301 79t-203 218h-4v-270h-57zM211 543q0 -215 143.5 -365.5t364.5 -150.5q246 0 383 156.5t137 359.5q0 225 -149.5 370.5t-364.5 145.5 q-219 0 -366.5 -147.5t-147.5 -368.5z" />
<glyph unicode="c" horiz-adv-x="1267" d="M84 541q0 242 163 406.5t408 164.5q176 0 328 -98.5t213 -280.5h-63q-55 154 -184.5 240t-291.5 86q-113 0 -196.5 -34t-169.5 -112q-68 -61 -109 -161.5t-41 -208.5q0 -225 150.5 -370.5t363.5 -145.5q174 0 303 92t172 223h64q-57 -168 -201.5 -268.5t-337.5 -100.5 q-242 0 -406.5 159t-164.5 409z" />
<glyph unicode="d" horiz-adv-x="1386" d="M84 543q0 233 158.5 401t412.5 168q184 0 321.5 -92t182.5 -211h4v707h58v-1516h-58v270h-4q-72 -139 -203 -218t-301 -79q-256 0 -413.5 169.5t-157.5 400.5zM278.5 183.5q137.5 -156.5 383.5 -156.5q221 0 364 150.5t143 365.5q0 221 -147.5 368.5t-366.5 147.5 q-217 0 -366 -146q-147 -143 -148 -364q0 -209 137.5 -365.5z" />
<glyph unicode="e" horiz-adv-x="1267" d="M63 541q0 244 165 407.5t409 163.5q227 0 393 -150.5t176 -394.5l-2 -30h-1081q2 -127 52 -228.5t128 -161t164 -90t170 -30.5q152 0 275.5 74.5t187.5 211.5h63q-72 -168 -214 -254t-314 -86q-248 2 -410 164t-162 404zM125 590h1022q-8 193 -159.5 331t-342.5 138 q-209 0 -358.5 -133t-161.5 -336z" />
<glyph unicode="f" horiz-adv-x="538" d="M14 1032v53h179v107q0 334 339 350v-55q-39 -4 -59 -6t-69.5 -19.5t-77 -45t-52 -84t-24.5 -134.5v-113h282v-53h-282v-1032h-57v1032h-179z" />
<glyph unicode="g" horiz-adv-x="1382" d="M82 543q0 233 159.5 401t417.5 168q184 0 321.5 -92t182.5 -211h4v276h58v-964q0 -129 -42 -234.5t-103.5 -168t-139.5 -105.5t-144.5 -59.5t-121.5 -16.5q-168 0 -317.5 89t-217.5 245h66q70 -115 141 -168q141 -113 320 -113q199 0 350 146.5t151 374.5v159h-6 q-70 -139 -201 -218t-301 -79q-260 0 -418.5 169.5t-158.5 400.5zM139 543q0 -203 139.5 -359.5t387.5 -156.5q221 0 364.5 150.5t143.5 365.5q0 221 -147.5 368.5t-367 147.5t-370 -145.5t-150.5 -370.5z" />
<glyph unicode="h" horiz-adv-x="1310" d="M160 0v1516h57v-639h4q49 111 171 173t259 62q213 0 346 -108q158 -133 158 -431v-573h-57v573q0 262 -133 383q-115 102 -308 103q-205 0 -322.5 -116t-117.5 -318v-625h-57z" />
<glyph unicode="i" horiz-adv-x="376" d="M160 0v1085h57v-1085h-57zM160 1329v187h57v-187h-57z" />
<glyph unicode="j" horiz-adv-x="448" d="M-29 -375q59 8 100.5 32t65 55.5t36.5 81.5t17.5 98.5t4.5 119.5v1073h57v-1073q0 -59 -2 -92t-8 -91t-24.5 -94t-48.5 -76t-80 -63.5t-118 -31.5v61zM195 1327v189h57v-189h-57z" />
<glyph unicode="k" horiz-adv-x="956" d="M160 0v1516h57v-1219h4l592 788h76l-402 -530l437 -555h-76l-397 510l-234 -311v-199h-57z" />
<glyph unicode="l" horiz-adv-x="374" d="M160 0v1516h57v-1516h-57z" />
<glyph unicode="m" horiz-adv-x="1943" d="M160 0v1085h57v-192h4q35 70 87 118t106.5 67.5t93.5 26.5t74 7q203 0 319 -133q53 -66 72 -127h4q23 70 76 127q121 133 315 133q188 0 297 -108q125 -123 125 -396v-608h-57v608q0 248 -111 359q-88 92 -254 92q-184 0 -281 -125q-51 -68 -67 -132.5t-16 -193.5v-608 h-58v608q0 125 -17.5 194.5t-60.5 127.5q-100 129 -293 129q-78 0 -146.5 -34t-111.5 -85q-100 -121 -100 -322v-618h-57z" />
<glyph unicode="n" horiz-adv-x="1312" d="M160 0v1085h57v-208h4q49 111 171 173t259 62q213 0 346 -108q158 -133 158 -431v-573h-57v573q0 262 -133 383q-115 102 -308 103q-205 0 -322.5 -116t-117.5 -318v-625h-57z" />
<glyph unicode="o" horiz-adv-x="1312" d="M84 542.5q0 243.5 164 406.5t407.5 163t407.5 -163t164 -406.5t-164 -406.5t-407.5 -163t-407.5 163t-164 406.5zM141 543q0 -221 147.5 -368.5t366.5 -147.5t366.5 147.5t147.5 368.5t-147.5 368.5t-366.5 147.5t-366.5 -147.5t-147.5 -368.5z" />
<glyph unicode="p" horiz-adv-x="1386" d="M160 -436v1521h57v-270h4q72 139 203 218t301 79q256 0 413.5 -169t157.5 -400q0 -233 -158.5 -401.5t-412.5 -168.5q-184 0 -321.5 92.5t-182.5 210.5h-4v-712h-57zM211 543q0 -221 147.5 -368.5t366.5 -147.5q217 0 367 145q147 143 147 365q0 209 -137 365.5 t-383 156.5q-221 0 -364.5 -150.5t-143.5 -365.5z" />
<glyph unicode="q" horiz-adv-x="1380" d="M84 543q0 231 157.5 400t413.5 169q170 0 301 -79t203 -218h4v270h58v-1521h-58v712h-4q-45 -119 -182 -211t-322 -92q-254 0 -412.5 168.5t-158.5 401.5zM141 537q0 -221 148 -365q150 -145 366 -145q219 0 366.5 147.5t147.5 368.5q0 215 -143 365.5t-364 150.5 q-246 0 -383.5 -156.5t-137.5 -365.5z" />
<glyph unicode="r" horiz-adv-x="618" d="M160 0v1085h57v-196h4q29 57 70 100t78 64.5t87 36t76.5 17.5t67.5 5v-55q-137 -4 -238 -76q-88 -80 -116.5 -171t-28.5 -222v-588h-57z" />
<glyph unicode="s" horiz-adv-x="872" d="M98 281v20h58q0 -127 77.5 -200.5t198.5 -73.5q117 0 188.5 74.5t71.5 181.5v8q-2 109 -64.5 167t-197.5 93q-145 37 -219 95.5t-74 184.5q0 121 79 201t216 80q125 0 206 -73.5t81 -209.5h-57q0 115 -66 172.5t-164 57.5q-117 0 -177 -63.5t-60 -164.5q4 -94 59 -141 t178 -82q61 -16 89 -24.5t79 -34t75.5 -54t47 -78.5t27.5 -118v-18q0 -129 -91.5 -218.5t-226.5 -89.5t-234.5 86.5t-99.5 221.5z" />
<glyph unicode="t" horiz-adv-x="606" d="M14 1032v53h240v431h57v-431h279v-53h-279v-1032h-57v1032h-240z" />
<glyph unicode="u" horiz-adv-x="1312" d="M160 512v573h57v-573q0 -262 133 -383q113 -102 303 -102q209 0 327 116.5t118 325.5v616h57v-1085h-57v219h-4q-49 -119 -168 -182.5t-260 -63.5q-217 0 -349 109q-157 133 -157 430z" />
<glyph unicode="v" horiz-adv-x="985" d="M8 1085h60l424 -1017l417 1017h66l-447 -1085h-73z" />
<glyph unicode="w" horiz-adv-x="1552" d="M20 1085h64l367 -999h4l301 852h43l301 -852h4l364 999h66l-401 -1085h-66l-291 823h-4l-287 -823h-65z" />
<glyph unicode="x" horiz-adv-x="833" d="M20 0l363 545l-363 540h74l324 -485l325 485h70l-360 -540l360 -545h-70l-325 489l-324 -489h-74z" />
<glyph unicode="y" horiz-adv-x="985" d="M23 1085h63l401 -1005l428 1005h68l-657 -1521h-66l193 438z" />
<glyph unicode="z" horiz-adv-x="833" d="M25 0v49l673 983h-637v53h711v-55l-674 -977h709v-53h-782z" />
<glyph unicode="{" horiz-adv-x="870" d="M236 457v57q74 18 119.5 126t45.5 267v383q0 135 37 193.5t131 58.5h136v-53h-111q-80 0 -103.5 -45t-23.5 -191v-379q0 -117 -42 -230.5t-124 -158.5q76 -33 121 -137t45 -237v-375q0 -154 23.5 -197t103.5 -43h111v-53h-136q-94 0 -131 60.5t-37 197.5v375 q0 154 -34.5 244t-130.5 137z" />
<glyph unicode="|" d="M539 -205v1721h61v-1721h-61z" />
<glyph unicode="}" horiz-adv-x="870" d="M166 -504h110q80 0 103.5 43t23.5 197v375q0 133 45.5 237.5t120.5 136.5q-82 45 -124 159t-42 230v379q0 145 -23.5 190.5t-103.5 45.5h-110v53h135q94 0 131 -58.5t37 -193.5v-383q0 -160 46 -267.5t120 -125.5v-57q-96 -47 -131 -137.5t-35 -243.5v-375 q0 -137 -37 -197.5t-131 -60.5h-135v53z" />
<glyph unicode="~" horiz-adv-x="1228" d="M156 469q78 147 237 147h13q82 -4 241 -75q160 -74 217 -74q53 0 91 34t77 93l39 -39q-37 -68 -91 -106.5t-112 -38.5q-74 0 -233.5 73.5t-228.5 75.5h-11q-127 0 -200 -127z" />
<glyph unicode="&#xa1;" horiz-adv-x="530" d="M236 -428v1176h61v-1176h-61zM236 922v165h61v-165h-61z" />
<glyph unicode="&#xa2;" d="M139 756q0 162 108.5 300t319.5 156v195h62v-197q72 -8 128 -26.5t125.5 -74.5t114.5 -148h-67q-104 193 -334 192q-178 0 -286.5 -114.5t-108.5 -276.5t104.5 -282t288.5 -120q131 0 216 57.5t120 125.5h69q-37 -72 -91 -123t-110.5 -74.5t-95 -33t-73.5 -11.5v-221h-62 v221q-203 12 -315.5 151.5t-112.5 303.5z" />
<glyph unicode="&#xa3;" d="M12 750v55h176q-84 106 -84 250q-2 207 137.5 346t350.5 139q164 0 297 -99.5t178 -275.5h-63q-41 141 -153 230.5t-255 89.5h-4q-186 -2 -305 -121t-121 -309v-6q0 -131 102 -244h559v-55h-499v-5q80 -57 146.5 -157.5t66.5 -235.5q0 -156 -92 -297h188 q131 0 195.5 21.5t113.5 70.5q109 111 109 261q0 45 -15 102h64q12 -57 12 -100q0 -100 -39 -180t-84 -121q-72 -66 -143.5 -87.5t-222.5 -21.5h-553v55h303l16 25q18 25 28.5 45t26 55t23.5 78t8 92q0 119 -58.5 211t-178.5 189h-230z" />
<glyph unicode="&#xa4;" d="M80 1143l43 43l158 -158q127 111 286 111q162 0 287 -109l156 156l45 -43l-156 -158q109 -121 109 -282.5t-115 -286.5l158 -158l-43 -43l-156 156q-131 -104 -285 -105q-156 0 -284 105l-158 -156l-41 43l158 158q-115 127 -115 286q0 162 111 283zM188 700 q0 -152 114 -262t265 -110q154 0 266.5 110.5t112.5 263.5q0 156 -112.5 265.5t-266.5 109.5q-152 0 -265.5 -108.5t-113.5 -266.5v-2z" />
<glyph unicode="&#xa5;" d="M66 1516h65l434 -717l443 717h65l-418 -678h387v-54h-419l-27 -53v-168h446v-53h-446v-510h-61v510h-439v53h439v168l-29 53h-410v54h379z" />
<glyph unicode="&#xa6;" d="M539 -205v688h61v-688h-61zM539 827v689h61v-689h-61z" />
<glyph unicode="&#xa7;" horiz-adv-x="1173" d="M123 664q0 90 52 176t155 137q-94 88 -94 219q0 158 104 252t262 94q170 0 271.5 -90t101.5 -252h-57q-14 160 -97.5 220.5t-218.5 60.5q-139 0 -225 -77t-84 -202q0 -57 17.5 -102t54 -76t63.5 -46t72 -36l307 -145q244 -113 244 -316q0 -96 -53.5 -181t-141.5 -136 q143 -100 143 -260q0 -156 -114.5 -258.5t-292.5 -102.5q-29 0 -60.5 2t-105.5 23.5t-127 58.5t-97 118t-44 192v65h57v-63q0 -168 108.5 -251t266.5 -83q156 0 254 83t98 216q0 164 -213 260l-399 184q-207 91 -207 316zM180 657q0 -172 158 -245l461 -213q68 27 131 105.5 t63 172.5q0 59 -19.5 104.5t-58 77t-64.5 47t-73 37.5l-405 195q-193 -93 -193 -281z" />
<glyph unicode="&#xa8;" d="M416 1266v237h59v-237h-59zM662 1266v237h59v-237h-59z" />
<glyph unicode="&#xa9;" horiz-adv-x="1638" d="M37 758q0 326 223 553t559 227q332 0 556 -227.5t224 -552.5q0 -332 -227 -556.5t-553 -224.5q-330 0 -556 223.5t-226 557.5zM94 758q0 -307 209 -517t516 -210q303 0 513 210t210 517q0 303 -206 515t-517 212t-518 -213t-207 -514zM389 756q0 211 123 343t322 132 q154 0 266 -86t129 -221h-58q-25 129 -123 191.5t-217 62.5q-166 0 -275.5 -113t-109.5 -307q0 -211 116 -314.5t267 -103.5q29 0 61 4t84 23.5t94 53.5t77 98.5t45 152.5h57q-12 -178 -134 -281.5t-286 -103.5q-176 0 -307 121t-131 348z" />
<glyph unicode="&#xaa;" horiz-adv-x="958" d="M74 1186q0 147 107.5 251.5t262.5 104.5q141 0 234 -86q53 -49 76 -104h4v174h57v-682h-57v170h-4q-31 -78 -121 -137q-80 -49 -189 -50q-162 0 -266 107t-104 252zM131 1178q0 -111 87 -204t228 -93q135 0 223.5 90t88.5 213q0 127 -93.5 216t-220.5 89q-125 0 -219 -85 t-94 -226z" />
<glyph unicode="&#xab;" horiz-adv-x="718" d="M100 565l228 396l41 -54l-197 -342l197 -340l-41 -53zM328 565l229 396l39 -54l-197 -342l197 -340l-39 -53z" />
<glyph unicode="&#xac;" horiz-adv-x="1228" d="M102 682v57h1024v-454h-57v397h-967z" />
<glyph unicode="&#xad;" horiz-adv-x="544" d="M0 537v59h545v-59h-545z" />
<glyph unicode="&#xae;" horiz-adv-x="1638" d="M37 758q0 326 223 553t559 227q332 0 556 -227.5t224 -552.5q0 -332 -227 -556.5t-553 -224.5q-330 0 -556 223.5t-226 557.5zM94 758q0 -307 209 -517t516 -210q303 0 513 210t210 517q0 303 -206 515t-517 212t-518 -213t-207 -514zM481 299v907h379q29 0 54.5 -1 t77.5 -14t88 -37t65 -73t29 -118q0 -86 -49.5 -143.5t-127.5 -78.5v-4q88 -20 120 -70.5t38 -134.5q10 -147 14.5 -178.5t16.5 -54.5h-60q-14 20 -24 205q-4 57 -11.5 87t-33 62.5t-80.5 45t-148 12.5h-290v-412h-58zM539 764h286q4 0 36 3t51.5 6t54 11.5t57.5 21.5 t45.5 33.5t34.5 51.5t12 72q0 190 -266 190h-311v-389z" />
<glyph unicode="&#xaf;" d="M203 1352v61h729v-61h-729z" />
<glyph unicode="&#xb0;" horiz-adv-x="819" d="M117 1159q0 123 85 208t207.5 85t207.5 -85t85 -208t-85 -208t-207.5 -85t-207.5 85t-85 208zM174 1159q0 -98 67.5 -166.5t168 -68.5t168 68.5t67.5 166.5t-67.5 167t-168 69t-168 -69t-67.5 -167z" />
<glyph unicode="&#xb1;" horiz-adv-x="1228" d="M98 0v57h1032v-57h-1032zM98 575v58h488v403h57v-403h487v-58h-487v-403h-57v403h-488z" />
<glyph unicode="&#xb2;" horiz-adv-x="718" d="M74 868v47l379 396q113 119 112 213q0 90 -49 154.5t-160 64.5q-92 0 -149 -61.5t-62 -172.5v-18h-57v16q4 143 85 215t187 72q119 0 191 -72.5t72 -197.5q0 -115 -131 -250l-338 -354h475v-52h-555z" />
<glyph unicode="&#xb3;" horiz-adv-x="718" d="M68 1143h57q2 -84 41 -141.5t87 -78t99 -20.5q104 0 166 64.5t62 165.5q0 84 -61.5 156.5t-182.5 72.5h-55v51h55q61 0 102 20.5t57.5 52.5t21.5 52.5t5 38.5q0 70 -44 117t-118 49q-72 0 -116.5 -46t-48.5 -120h-58q6 109 75 163t150 54q86 0 152 -60.5t66 -154.5 q0 -127 -117 -188q78 -31 126 -100.5t48 -153.5q0 -125 -80 -205t-205 -80q-113 0 -197.5 77t-86.5 214z" />
<glyph unicode="&#xb4;" d="M328 1286l485 283l29 -47l-488 -283z" />
<glyph unicode="&#xb5;" horiz-adv-x="1148" d="M150 -371v1456h57v-614q0 -74 3 -119t21.5 -107.5t55.5 -103.5q96 -115 272 -114q174 0 274.5 136t100.5 406v516h57v-1085h-57v244h-4q-88 -270 -371 -271q-244 0 -348 185h-4v-529h-57z" />
<glyph unicode="&#xb6;" horiz-adv-x="1148" d="M25 1106q0 113 52 204t132 140q104 66 295 66h504v-58h-131v-1716h-62v1712h-264v-1712h-62v960h-40q-195 0 -309.5 118t-114.5 286z" />
<glyph unicode="&#xb7;" horiz-adv-x="567" d="M254 440v166h61v-166h-61z" />
<glyph unicode="&#xb8;" d="M418 -285h55q18 -72 96 -71q37 0 66 26.5t29 73.5q0 41 -28 66.5t-67 25.5q-53 0 -84 -51l-45 10l95 205h59l-53 -115l4 -2q12 6 26 6q68 0 108 -44t40 -101q0 -61 -40 -108.5t-110 -47.5q-128 0 -151 127z" />
<glyph unicode="&#xb9;" horiz-adv-x="505" d="M39 1726v52h252v-910h-58v858h-194z" />
<glyph unicode="&#xba;" horiz-adv-x="866" d="M74 1178q0 156 102.5 260t253.5 104q158 0 260.5 -104.5t102.5 -251.5q0 -156 -110 -257.5t-253 -101.5q-145 0 -250.5 103t-105.5 248zM131 1180q0 -121 88 -210t211 -89t214 87t91 218q0 125 -86 214t-215 89q-125 0 -214 -86t-89 -223z" />
<glyph unicode="&#xbb;" horiz-adv-x="718" d="M123 225l196 340l-196 342l39 54l229 -396l-229 -393zM350 225l197 340l-197 342l41 54l227 -396l-227 -393z" />
<glyph unicode="&#xbc;" horiz-adv-x="1433" d="M51 1464v52h252v-910h-57v858h-195zM252 0l674 1516h61l-676 -1516h-59zM694 174v43l457 692h68v-684h86v-51h-86v-174h-58v174h-467zM764 225h397v609h-2z" />
<glyph unicode="&#xbd;" horiz-adv-x="1495" d="M51 1464v52h252v-910h-57v858h-195zM252 2l674 1516h61l-676 -1516h-59zM852 0v47l379 395q113 119 112 213q0 90 -49 154.5t-159 64.5q-92 0 -149.5 -61t-61.5 -172v-18h-58v16q4 143 85 215t188 72q119 0 190.5 -73t71.5 -198q0 -115 -131 -249l-338 -355h475v-51h-555 z" />
<glyph unicode="&#xbe;" horiz-adv-x="1652" d="M82 881h57q2 -84 41 -141.5t87 -78t100 -20.5q104 0 165.5 64.5t61.5 164.5q0 84 -61.5 157t-182.5 73h-55v51h55q61 0 102.5 20.5t57.5 52t21.5 52t5.5 39.5q0 70 -44 117t-118 49q-72 0 -117 -46t-49 -120h-57q6 109 74.5 163t150.5 54q86 0 151.5 -60.5t65.5 -154.5 q0 -127 -117 -189q78 -31 126 -100.5t48 -153.5q0 -125 -79.5 -204.5t-204.5 -79.5q-113 0 -198 77t-87 214zM512 -2l674 1515h61l-676 -1515h-59zM956 174v43l457 692h68v-684h86v-51h-86v-174h-58v174h-467zM1026 225h397v609h-2z" />
<glyph unicode="&#xbf;" horiz-adv-x="1097" d="M141 -25q0 57 18.5 110.5t63.5 110t72 84t90 89.5q70 68 106.5 143.5t42 117.5t5.5 105v10h61q-2 -86 -10 -137t-51 -134t-125 -163q-8 -8 -51.5 -50t-53.5 -53t-39.5 -48t-38 -58.5t-18.5 -58.5t-10 -74q0 -154 107.5 -257t262.5 -103q86 0 167 32.5t145.5 119.5 t68.5 212h62q-4 -117 -51 -204.5t-116 -134t-138.5 -68t-135.5 -21.5q-176 0 -305 122t-129 308zM541 920v165h59v-165h-59z" />
<glyph unicode="&#xc0;" horiz-adv-x="1406" d="M14 0l650 1516h79l650 -1516h-66l-227 528h-793l-227 -528h-66zM334 584h739l-371 874zM430 1901l29 47l485 -283l-26 -47z" />
<glyph unicode="&#xc1;" horiz-adv-x="1406" d="M14 0l650 1516h79l650 -1516h-66l-227 528h-793l-227 -528h-66zM334 584h739l-371 874zM463 1665l485 283l29 -47l-488 -283z" />
<glyph unicode="&#xc2;" horiz-adv-x="1406" d="M14 0l650 1516h79l650 -1516h-66l-227 528h-793l-227 -528h-66zM303 1686l399 225l402 -225l-53 -31l-349 192l-348 -192zM334 584h739l-371 874z" />
<glyph unicode="&#xc3;" horiz-adv-x="1406" d="M14 0l650 1516h79l650 -1516h-66l-227 528h-793l-227 -528h-66zM332 1790q88 72 200 72q76 0 175 -50q111 -55 182 -55q63 0 143 47l41 -43q-98 -66 -182 -65q-92 0 -186 51q-104 57 -173 57q-90 0 -159 -55zM334 584h739l-371 874z" />
<glyph unicode="&#xc4;" horiz-adv-x="1406" d="M14 0l650 1516h79l650 -1516h-66l-227 528h-793l-227 -528h-66zM334 584h739l-371 874zM551 1645v237h59v-237h-59zM797 1645v237h59v-237h-59z" />
<glyph unicode="&#xc5;" horiz-adv-x="1406" d="M14 0l650 1516h79l650 -1516h-66l-227 528h-793l-227 -528h-66zM334 584h739l-371 874zM516 1732.5q0 77.5 55.5 132t130.5 54.5q78 0 133.5 -54.5t55.5 -132t-55.5 -132t-133.5 -54.5q-76 0 -131 54.5t-55 132zM573 1734.5q0 -53.5 38 -91t91 -37.5q55 0 93.5 37.5 t38.5 91t-38 92.5t-94 39q-53 0 -91 -39t-38 -92.5z" />
<glyph unicode="&#xc6;" horiz-adv-x="1933" d="M-16 0l1048 1516h750v-56h-647v-669h647v-56h-647v-680h647v-55h-709v541h-645l-375 -541h-69zM473 596h600v883h-4z" />
<glyph unicode="&#xc7;" horiz-adv-x="1609" d="M84 758q0 338 228.5 562t557.5 222q223 0 395.5 -107.5t268.5 -256.5h-72q-29 41 -71.5 84t-116.5 99t-180.5 91t-223.5 35q-303 2 -514 -207t-211 -522q0 -311 211 -520t514 -209q123 0 232.5 36.5t183.5 94t112 95.5t64 75h70q-84 -141 -255 -245.5t-386 -111.5 l-41 -88l4 -2q12 6 27 6q68 0 107.5 -44t39.5 -101q0 -61 -40 -108.5t-109 -47.5q-129 0 -152 127h55q18 -72 97 -71q37 0 65.5 26.5t28.5 73.5q0 41 -27.5 66.5t-66.5 25.5q-53 0 -84 -51l-45 10l81 180q-315 14 -531 234.5t-216 548.5z" />
<glyph unicode="&#xc8;" horiz-adv-x="1120" d="M158 0v1516h831v-56h-770v-669h770v-56h-770v-680h770v-55h-831zM287 1901l28 47l486 -283l-27 -47z" />
<glyph unicode="&#xc9;" horiz-adv-x="1120" d="M158 0v1516h831v-56h-770v-669h770v-56h-770v-680h770v-55h-831zM319 1665l486 283l29 -47l-488 -283z" />
<glyph unicode="&#xca;" horiz-adv-x="1120" d="M158 0v1516h831v-56h-770v-669h770v-56h-770v-680h770v-55h-831zM160 1686l399 225l402 -225l-54 -31l-348 192l-348 -192z" />
<glyph unicode="&#xcb;" horiz-adv-x="1120" d="M158 0v1516h831v-56h-770v-669h770v-56h-770v-680h770v-55h-831zM408 1645v237h59v-237h-59zM653 1645v237h60v-237h-60z" />
<glyph unicode="&#xcc;" horiz-adv-x="378" d="M-125 1901l29 47l485 -283l-27 -47zM158 0v1516h61v-1516h-61z" />
<glyph unicode="&#xcd;" horiz-adv-x="378" d="M-10 1665l485 283l29 -47l-488 -283zM158 0v1516h61v-1516h-61z" />
<glyph unicode="&#xce;" horiz-adv-x="378" d="M-211 1686l399 225l402 -225l-53 -31l-349 192l-348 -192zM158 0v1516h61v-1516h-61z" />
<glyph unicode="&#xcf;" horiz-adv-x="378" d="M37 1645v237h59v-237h-59zM158 0v1516h61v-1516h-61zM283 1645v237h59v-237h-59z" />
<glyph unicode="&#xd0;" horiz-adv-x="1456" d="M20 735v56h158v725h428q358 0 561 -201t203 -557.5t-202.5 -557t-561.5 -200.5h-428v735h-158zM240 55h366q330 0 516.5 185.5t186.5 513.5q0 332 -185.5 519t-517.5 187h-366v-669h514v-56h-514v-680z" />
<glyph unicode="&#xd1;" horiz-adv-x="1511" d="M158 0v1516h92l1038 -1434h4v1434h62v-1516h-78l-1053 1454h-4v-1454h-61zM385 1790q88 72 201 72q76 0 174 -50q111 -55 182 -55q63 0 143 47l41 -43q-98 -66 -182 -65q-92 0 -186 51q-104 57 -172 57q-90 0 -160 -55z" />
<glyph unicode="&#xd2;" horiz-adv-x="1742" d="M84 758q0 338 228.5 561t558 223t558 -223t228.5 -561t-228.5 -561.5t-558 -223.5t-558 223.5t-228.5 561.5zM145 757.5q0 -311.5 211 -520t514.5 -208.5t514 208.5t210.5 520t-210.5 520.5t-514 209t-514.5 -209t-211 -520.5zM598 1901l29 47l485 -283l-27 -47z" />
<glyph unicode="&#xd3;" horiz-adv-x="1742" d="M84 758q0 338 228.5 561t558 223t558 -223t228.5 -561t-228.5 -561.5t-558 -223.5t-558 223.5t-228.5 561.5zM145 757.5q0 -311.5 211 -520t514.5 -208.5t514 208.5t210.5 520t-210.5 520.5t-514 209t-514.5 -209t-211 -520.5zM631 1665l485 283l29 -47l-488 -283z" />
<glyph unicode="&#xd4;" horiz-adv-x="1742" d="M84 758q0 338 228.5 561t558 223t558 -223t228.5 -561t-228.5 -561.5t-558 -223.5t-558 223.5t-228.5 561.5zM145 757.5q0 -311.5 211 -520t514.5 -208.5t514 208.5t210.5 520t-210.5 520.5t-514 209t-514.5 -209t-211 -520.5zM471 1686l399 225l402 -225l-53 -31 l-349 192l-348 -192z" />
<glyph unicode="&#xd5;" horiz-adv-x="1742" d="M84 758q0 338 228.5 561t558 223t558 -223t228.5 -561t-228.5 -561.5t-558 -223.5t-558 223.5t-228.5 561.5zM145 757.5q0 -311.5 211 -520t514.5 -208.5t514 208.5t210.5 520t-210.5 520.5t-514 209t-514.5 -209t-211 -520.5zM500 1790q88 72 200 72q76 0 174 -50 q111 -55 183 -55q63 0 143 47l41 -43q-98 -66 -182 -65q-92 0 -187 51q-104 57 -172 57q-90 0 -159 -55z" />
<glyph unicode="&#xd6;" horiz-adv-x="1742" d="M84 758q0 338 228.5 561t558 223t558 -223t228.5 -561t-228.5 -561.5t-558 -223.5t-558 223.5t-228.5 561.5zM145 757.5q0 -311.5 211 -520t514.5 -208.5t514 208.5t210.5 520t-210.5 520.5t-514 209t-514.5 -209t-211 -520.5zM719 1645v237h59v-237h-59zM965 1645v237 h59v-237h-59z" />
<glyph unicode="&#xd7;" horiz-adv-x="1228" d="M102 47l469 467l-469 463l41 45l471 -467l471 467l41 -45l-469 -463l469 -467l-41 -43l-471 469l-471 -469z" />
<glyph unicode="&#xd8;" horiz-adv-x="1742" d="M84 758q0 338 228.5 561t557.5 223q250 0 449 -133l180 248l49 -37l-180 -248q137 -111 213 -268.5t76 -345.5q0 -338 -228.5 -561.5t-558.5 -223.5q-242 0 -430 125l-200 -274l-47 37l196 270q-141 106 -223 269t-82 358zM145 758q0 -180 74 -331t205 -249l860 1184 q-186 125 -414 125q-303 0 -514 -209t-211 -520zM475 145q176 -117 395 -116q303 0 514 208.5t211 520.5q0 174 -69.5 321.5t-192.5 245.5z" />
<glyph unicode="&#xd9;" horiz-adv-x="1239" d="M156 532v984h61v-984q0 -92 3 -137t24.5 -106.5t66.5 -120.5q49 -63 134 -101t178 -38q88 0 172 37.5t133 101.5q45 59 66.5 120.5t24.5 106.5t3 137v984h61v-984q0 -70 -4 -116.5t-19.5 -117.5t-55 -129t-103.5 -103q-129 -92 -283 -93q-152 0 -280 93q-63 45 -103 103 t-55.5 129t-19.5 117.5t-4 116.5zM346 1901l29 47l485 -283l-26 -47z" />
<glyph unicode="&#xda;" horiz-adv-x="1239" d="M156 532v984h61v-984q0 -92 3 -137t24.5 -106.5t66.5 -120.5q49 -63 134 -101t178 -38q88 0 172 37.5t133 101.5q45 59 66.5 120.5t24.5 106.5t3 137v984h61v-984q0 -70 -4 -116.5t-19.5 -117.5t-55 -129t-103.5 -103q-129 -92 -283 -93q-152 0 -280 93q-63 45 -103 103 t-55.5 129t-19.5 117.5t-4 116.5zM379 1665l485 283l29 -47l-487 -283z" />
<glyph unicode="&#xdb;" horiz-adv-x="1239" d="M156 532v984h61v-984q0 -92 3 -137t24.5 -106.5t66.5 -120.5q49 -63 134 -101t178 -38q88 0 172 37.5t133 101.5q45 59 66.5 120.5t24.5 106.5t3 137v984h61v-984q0 -70 -4 -116.5t-19.5 -117.5t-55 -129t-103.5 -103q-129 -92 -283 -93q-152 0 -280 93q-63 45 -103 103 t-55.5 129t-19.5 117.5t-4 116.5zM219 1686l399 225l402 -225l-53 -31l-349 192l-348 -192z" />
<glyph unicode="&#xdc;" horiz-adv-x="1239" d="M156 532v984h61v-984q0 -92 3 -137t24.5 -106.5t66.5 -120.5q49 -63 134 -101t178 -38q88 0 172 37.5t133 101.5q45 59 66.5 120.5t24.5 106.5t3 137v984h61v-984q0 -70 -4 -116.5t-19.5 -117.5t-55 -129t-103.5 -103q-129 -92 -283 -93q-152 0 -280 93q-63 45 -103 103 t-55.5 129t-19.5 117.5t-4 116.5zM467 1645v237h59v-237h-59zM713 1645v237h59v-237h-59z" />
<glyph unicode="&#xdd;" horiz-adv-x="1134" d="M31 1516h67l469 -924l467 924h70l-506 -994v-522h-61v522zM328 1665l485 283l29 -47l-488 -283z" />
<glyph unicode="&#xde;" horiz-adv-x="1046" d="M137 0v1516h62v-320h290q150 0 228 -17.5t151 -72.5q68 -49 111 -143.5t43 -196.5t-43 -196.5t-111 -143.5q-74 -55 -151.5 -72.5t-227.5 -17.5h-290v-336h-62zM199 391h293q133 0 205.5 18.5t138.5 65.5q53 41 89 122t36 167q0 88 -35 169t-90 124q-66 47 -138.5 65.5 t-205.5 18.5h-293v-750z" />
<glyph unicode="&#xdf;" horiz-adv-x="1144" d="M156 0v967q0 172 17 259t63 152q51 76 136 119t175 43q184 0 292.5 -111.5t108.5 -291.5q0 -57 -13 -116.5t-68.5 -134.5t-145.5 -112v-4q164 -23 251 -136.5t87 -254.5q0 -178 -120 -293t-282 -113q-72 0 -137 20.5t-125.5 66.5t-99.5 131t-45 200h57q4 -104 41 -180 t93.5 -114t111.5 -54t111 -16q135 -2 236 96t101 246q0 180 -129 282q-53 41 -116.5 60.5t-192.5 19.5h-57v53h55q131 0 230.5 101.5t99.5 251.5q0 166 -94.5 258t-247.5 92q-78 0 -149.5 -36t-110.5 -93q-49 -72 -62.5 -152t-13.5 -239v-967h-57z" />
<glyph unicode="&#xe0;" horiz-adv-x="1380" d="M84 543q0 233 158.5 401t412.5 168q184 0 321.5 -92t182.5 -211h4v276h58v-1085h-58v270h-4q-72 -139 -203 -218t-301 -79q-256 0 -413.5 169.5t-157.5 400.5zM141 543q0 -203 137.5 -359.5t383.5 -156.5q221 0 364 150.5t143 365.5q0 221 -147.5 368.5t-366.5 147.5 q-217 0 -366.5 -145.5t-147.5 -370.5zM377 1522l29 47l485 -283l-27 -47z" />
<glyph unicode="&#xe1;" horiz-adv-x="1380" d="M84 543q0 233 158.5 401t412.5 168q184 0 321.5 -92t182.5 -211h4v276h58v-1085h-58v270h-4q-72 -139 -203 -218t-301 -79q-256 0 -413.5 169.5t-157.5 400.5zM141 543q0 -203 137.5 -359.5t383.5 -156.5q221 0 364 150.5t143 365.5q0 221 -147.5 368.5t-366.5 147.5 q-217 0 -366.5 -145.5t-147.5 -370.5zM440 1286l486 283l28 -47l-487 -283z" />
<glyph unicode="&#xe2;" horiz-adv-x="1380" d="M84 543q0 233 158.5 401t412.5 168q184 0 321.5 -92t182.5 -211h4v276h58v-1085h-58v270h-4q-72 -139 -203 -218t-301 -79q-256 0 -413.5 169.5t-157.5 400.5zM141 543q0 -203 137.5 -359.5t383.5 -156.5q221 0 364 150.5t143 365.5q0 221 -147.5 368.5t-366.5 147.5 q-217 0 -366.5 -145.5t-147.5 -370.5zM291 1307l399 225l402 -225l-54 -31l-348 192l-348 -192z" />
<glyph unicode="&#xe3;" horiz-adv-x="1380" d="M84 543q0 233 158.5 401t412.5 168q184 0 321.5 -92t182.5 -211h4v276h58v-1085h-58v270h-4q-72 -139 -203 -218t-301 -79q-256 0 -413.5 169.5t-157.5 400.5zM141 543q0 -203 137.5 -359.5t383.5 -156.5q221 0 364 150.5t143 365.5q0 221 -147.5 368.5t-366.5 147.5 q-217 0 -366.5 -145.5t-147.5 -370.5zM319 1391q88 72 201 71q76 0 174 -49q111 -55 183 -55q63 0 143 47l41 -43q-98 -66 -182 -66q-92 0 -187 52q-104 57 -172 57q-90 0 -160 -55z" />
<glyph unicode="&#xe4;" horiz-adv-x="1380" d="M84 543q0 233 158.5 401t412.5 168q184 0 321.5 -92t182.5 -211h4v276h58v-1085h-58v270h-4q-72 -139 -203 -218t-301 -79q-256 0 -413.5 169.5t-157.5 400.5zM141 543q0 -203 137.5 -359.5t383.5 -156.5q221 0 364 150.5t143 365.5q0 221 -147.5 368.5t-366.5 147.5 q-217 0 -366.5 -145.5t-147.5 -370.5zM539 1266v237h59v-237h-59zM784 1266v237h60v-237h-60z" />
<glyph unicode="&#xe5;" horiz-adv-x="1380" d="M84 543q0 233 158.5 401t412.5 168q184 0 321.5 -92t182.5 -211h4v276h58v-1085h-58v270h-4q-72 -139 -203 -218t-301 -79q-256 0 -413.5 169.5t-157.5 400.5zM141 543q0 -203 137.5 -359.5t383.5 -156.5q221 0 364 150.5t143 365.5q0 221 -147.5 368.5t-366.5 147.5 q-217 0 -366.5 -145.5t-147.5 -370.5zM504 1401q0 78 55 132t131 54q78 0 133.5 -54t55.5 -132t-55.5 -132.5t-133.5 -54.5q-76 0 -131 54.5t-55 132.5zM561 1403q0 -53 38 -91t91 -38q55 0 93 38t38 91t-38 92t-93 39q-53 0 -91 -39t-38 -92z" />
<glyph unicode="&#xe6;" horiz-adv-x="2363" d="M84 540.5q0 243.5 163 407.5t404 164q141 0 264 -63.5t201 -186.5q8 -14 41 -94h4v317h58v-315h4q37 88 41 94q156 248 446 248q256 0 410.5 -169t158.5 -406h-1060q12 -147 71.5 -255t141 -159t154.5 -73.5t140 -22.5q154 0 268.5 84t184.5 202h68 q-61 -135 -198.5 -236.5t-315.5 -103.5q-141 0 -260 60.5t-197 175.5q-31 47 -53 123h-4v-332h-58v332h-4q-23 -78 -53 -125q-90 -129 -218 -181.5t-231 -52.5q-244 -2 -407.5 161t-163.5 406.5zM141 543q0 -221 147.5 -368.5t368.5 -147.5q205 0 355.5 152.5t150.5 363.5 q0 207 -148.5 361.5t-357.5 154.5q-221 0 -368.5 -147.5t-147.5 -368.5zM1221 590h995q-37 227 -171 348t-331 121q-219 0 -364 -168q-45 -51 -73 -108.5t-37 -93.5t-19 -99z" />
<glyph unicode="&#xe7;" horiz-adv-x="1267" d="M84 543q0 242 163 405.5t408 163.5q176 0 328 -98.5t213 -280.5h-63q-55 154 -184.5 240t-291.5 86q-113 0 -196.5 -34t-169.5 -112q-68 -61 -109 -161.5t-41 -208.5q0 -225 150.5 -370.5t363.5 -145.5q174 0 303 92t172 223h64q-57 -168 -201.5 -268.5t-337.5 -100.5h-4 l-41 -88l4 -2q12 6 27 6q68 0 107.5 -44t39.5 -101q0 -61 -39.5 -108.5t-109.5 -47.5q-129 0 -152 127h56q18 -72 96 -71q37 0 65.5 26.5t28.5 73.5q0 41 -27.5 66.5t-66.5 25.5q-53 0 -84 -51l-45 10l84 185q-219 18 -364.5 174t-145.5 389z" />
<glyph unicode="&#xe8;" horiz-adv-x="1267" d="M63 541q0 244 165 407.5t409 163.5q227 0 393 -150.5t176 -394.5l-2 -30h-1081q2 -127 52 -228.5t128 -161t164 -90t170 -30.5q152 0 275.5 74.5t187.5 211.5h63q-72 -168 -214 -254t-314 -86q-248 2 -410 164t-162 404zM125 590h1022q-8 193 -159.5 331t-342.5 138 q-209 0 -358.5 -133t-161.5 -336zM360 1522l29 47l485 -283l-26 -47z" />
<glyph unicode="&#xe9;" horiz-adv-x="1267" d="M63 541q0 244 165 407.5t409 163.5q227 0 393 -150.5t176 -394.5l-2 -30h-1081q2 -127 52 -228.5t128 -161t164 -90t170 -30.5q152 0 275.5 74.5t187.5 211.5h63q-72 -168 -214 -254t-314 -86q-248 2 -410 164t-162 404zM125 590h1022q-8 193 -159.5 331t-342.5 138 q-209 0 -358.5 -133t-161.5 -336zM383 1286l485 283l29 -47l-487 -283z" />
<glyph unicode="&#xea;" horiz-adv-x="1267" d="M63 541q0 244 165 407.5t409 163.5q227 0 393 -150.5t176 -394.5l-2 -30h-1081q2 -127 52 -228.5t128 -161t164 -90t170 -30.5q152 0 275.5 74.5t187.5 211.5h63q-72 -168 -214 -254t-314 -86q-248 2 -410 164t-162 404zM125 590h1022q-8 193 -159.5 331t-342.5 138 q-209 0 -358.5 -133t-161.5 -336zM233 1307l400 225l401 -225l-53 -31l-348 192l-348 -192z" />
<glyph unicode="&#xeb;" horiz-adv-x="1267" d="M63 541q0 244 165 407.5t409 163.5q227 0 393 -150.5t176 -394.5l-2 -30h-1081q2 -127 52 -228.5t128 -161t164 -90t170 -30.5q152 0 275.5 74.5t187.5 211.5h63q-72 -168 -214 -254t-314 -86q-248 2 -410 164t-162 404zM125 590h1022q-8 193 -159.5 331t-342.5 138 q-209 0 -358.5 -133t-161.5 -336zM471 1266v237h59v-237h-59zM717 1266v237h59v-237h-59z" />
<glyph unicode="&#xec;" horiz-adv-x="376" d="M-125 1522l29 47l485 -283l-27 -47zM160 0v1085h57v-1085h-57z" />
<glyph unicode="&#xed;" horiz-adv-x="376" d="M-10 1286l485 283l29 -47l-488 -283zM160 0v1085h57v-1085h-57z" />
<glyph unicode="&#xee;" horiz-adv-x="376" d="M-211 1307l399 225l402 -225l-53 -31l-349 192l-348 -192zM160 0v1085h57v-1085h-57z" />
<glyph unicode="&#xef;" horiz-adv-x="376" d="M37 1266v237h59v-237h-59zM160 0v1085h57v-1085h-57zM283 1266v237h59v-237h-59z" />
<glyph unicode="&#xf0;" horiz-adv-x="1312" d="M84 541q0 252 164 411.5t416 159.5q115 0 223 -49t178 -135l4 4q-147 227 -438 381l-391 -158l-41 41l368 150q-154 76 -340 139l70 31q186 -63 340 -144l358 144l39 -43l-334 -134q289 -170 409 -363.5t120 -430.5q0 -262 -174 -417t-406 -155q-229 0 -397 152t-168 416 zM141 543q0 -221 146.5 -368.5t367.5 -147.5q223 0 369.5 148.5t146.5 369.5q0 213 -152.5 363.5t-359.5 150.5q-223 -2 -370.5 -149.5t-147.5 -366.5z" />
<glyph unicode="&#xf1;" horiz-adv-x="1312" d="M160 0v1085h57v-208h4q49 111 171 173t259 62q213 0 346 -108q158 -133 158 -431v-573h-57v573q0 262 -133 383q-115 102 -308 103q-205 0 -322.5 -116t-117.5 -318v-625h-57zM285 1391q88 72 200 71q76 0 174 -49q111 -55 183 -55q63 0 143 47l41 -43q-98 -66 -182 -66 q-92 0 -187 52q-104 57 -172 57q-90 0 -159 -55z" />
<glyph unicode="&#xf2;" horiz-adv-x="1312" d="M84 542.5q0 243.5 164 406.5t407.5 163t407.5 -163t164 -406.5t-164 -406.5t-407.5 -163t-407.5 163t-164 406.5zM141 543q0 -221 147.5 -368.5t366.5 -147.5t366.5 147.5t147.5 368.5t-147.5 368.5t-366.5 147.5t-366.5 -147.5t-147.5 -368.5zM383 1522l29 47l485 -283 l-27 -47z" />
<glyph unicode="&#xf3;" horiz-adv-x="1312" d="M84 542.5q0 243.5 164 406.5t407.5 163t407.5 -163t164 -406.5t-164 -406.5t-407.5 -163t-407.5 163t-164 406.5zM141 543q0 -221 147.5 -368.5t366.5 -147.5t366.5 147.5t147.5 368.5t-147.5 368.5t-366.5 147.5t-366.5 -147.5t-147.5 -368.5zM406 1286l485 283l29 -47 l-488 -283z" />
<glyph unicode="&#xf4;" horiz-adv-x="1312" d="M84 542.5q0 243.5 164 406.5t407.5 163t407.5 -163t164 -406.5t-164 -406.5t-407.5 -163t-407.5 163t-164 406.5zM141 543q0 -221 147.5 -368.5t366.5 -147.5t366.5 147.5t147.5 368.5t-147.5 368.5t-366.5 147.5t-366.5 -147.5t-147.5 -368.5zM256 1307l399 225 l402 -225l-53 -31l-349 192l-348 -192z" />
<glyph unicode="&#xf5;" horiz-adv-x="1312" d="M84 542.5q0 243.5 164 406.5t407.5 163t407.5 -163t164 -406.5t-164 -406.5t-407.5 -163t-407.5 163t-164 406.5zM141 543q0 -221 147.5 -368.5t366.5 -147.5t366.5 147.5t147.5 368.5t-147.5 368.5t-366.5 147.5t-366.5 -147.5t-147.5 -368.5zM285 1391q88 72 200 71 q76 0 174 -49q111 -55 183 -55q63 0 143 47l41 -43q-98 -66 -182 -66q-92 0 -187 52q-104 57 -172 57q-90 0 -159 -55z" />
<glyph unicode="&#xf6;" horiz-adv-x="1312" d="M84 542.5q0 243.5 164 406.5t407.5 163t407.5 -163t164 -406.5t-164 -406.5t-407.5 -163t-407.5 163t-164 406.5zM141 543q0 -221 147.5 -368.5t366.5 -147.5t366.5 147.5t147.5 368.5t-147.5 368.5t-366.5 147.5t-366.5 -147.5t-147.5 -368.5zM504 1266v237h59v-237h-59 zM750 1266v237h59v-237h-59z" />
<glyph unicode="&#xf7;" horiz-adv-x="1228" d="M102 483v58h1024v-58h-1024zM584 0v166h61v-166h-61zM584 858v166h61v-166h-61z" />
<glyph unicode="&#xf8;" horiz-adv-x="1312" d="M84 543q0 244 164 406.5t407 162.5q178 0 314 -90l127 176l43 -35l-123 -172q211 -172 211 -448q0 -244 -164 -407t-408 -163q-174 0 -313 90l-123 -169l-45 34l123 168q-213 164 -213 447zM141 543q0 -254 187 -404l608 838q-123 82 -281 82q-219 0 -366.5 -147.5 t-147.5 -368.5zM373 106q127 -80 282 -79q219 0 366.5 147.5t147.5 368.5q0 254 -186 403z" />
<glyph unicode="&#xf9;" horiz-adv-x="1312" d="M160 512v573h57v-573q0 -262 133 -383q113 -102 303 -102q209 0 327 116.5t118 325.5v616h57v-1085h-57v219h-4q-49 -119 -168 -182.5t-260 -63.5q-217 0 -349 109q-157 133 -157 430zM383 1522l29 47l485 -283l-27 -47z" />
<glyph unicode="&#xfa;" horiz-adv-x="1312" d="M160 512v573h57v-573q0 -262 133 -383q113 -102 303 -102q209 0 327 116.5t118 325.5v616h57v-1085h-57v219h-4q-49 -119 -168 -182.5t-260 -63.5q-217 0 -349 109q-157 133 -157 430zM416 1286l485 283l29 -47l-488 -283z" />
<glyph unicode="&#xfb;" horiz-adv-x="1312" d="M160 512v573h57v-573q0 -262 133 -383q113 -102 303 -102q209 0 327 116.5t118 325.5v616h57v-1085h-57v219h-4q-49 -119 -168 -182.5t-260 -63.5q-217 0 -349 109q-157 133 -157 430zM256 1307l399 225l402 -225l-53 -31l-349 192l-348 -192z" />
<glyph unicode="&#xfc;" horiz-adv-x="1312" d="M160 512v573h57v-573q0 -262 133 -383q113 -102 303 -102q209 0 327 116.5t118 325.5v616h57v-1085h-57v219h-4q-49 -119 -168 -182.5t-260 -63.5q-217 0 -349 109q-157 133 -157 430zM504 1266v237h59v-237h-59zM750 1266v237h59v-237h-59z" />
<glyph unicode="&#xfd;" horiz-adv-x="985" d="M23 1085h63l401 -1005l428 1005h68l-657 -1521h-66l193 438zM252 1286l485 283l29 -47l-487 -283z" />
<glyph unicode="&#xfe;" horiz-adv-x="1394" d="M160 -436v1952h57v-723h4q45 96 116 163.5t146.5 99t137 44t114.5 12.5q244 0 409 -164t165 -405q0 -244 -165 -407t-409 -163q-172 0 -309 87t-205 227h-4v-723h-57zM217 537q0 -199 150.5 -354.5t369.5 -155.5q221 0 367.5 147.5t146.5 368.5t-146.5 368.5 t-367.5 147.5q-209 0 -364.5 -146.5t-155.5 -375.5z" />
<glyph unicode="&#xff;" horiz-adv-x="985" d="M23 1085h63l401 -1005l428 1005h68l-657 -1521h-66l193 438zM340 1266v237h59v-237h-59zM586 1266v237h59v-237h-59z" />
<glyph unicode="&#x152;" horiz-adv-x="2412" d="M84 758q0 342 223 563t549 221q258 0 456.5 -138t264.5 -357h4v469h707v-56h-646v-669h646v-56h-646v-680h646v-55h-707v469h-4q-63 -217 -261 -356.5t-452 -139.5q-332 0 -556 221.5t-224 563.5zM145 757.5q0 -317.5 206 -523t509 -205.5q164 0 304.5 63.5t229.5 165.5 t138 227t49 252v45q0 123 -48 246t-135 226.5t-228.5 168t-309.5 64.5q-303 0 -509 -206t-206 -523.5z" />
<glyph unicode="&#x153;" horiz-adv-x="2367" d="M84 541q0 244 164 407.5t407 163.5q129 0 242 -53t190 -150q63 -78 103 -194l4 8q37 111 103.5 189.5t144.5 118.5t146.5 56.5t133.5 16.5q240 0 402 -168t162 -397h-1061q12 -244 161.5 -378t344.5 -134q145 0 272 75.5t176 214.5h64q-18 -43 -27.5 -62t-34 -60 t-59.5 -74t-82 -62q-135 -86 -309 -86q-96 0 -197.5 35t-200 128t-135.5 229h-4q-82 -207 -229.5 -299.5t-309.5 -92.5q-244 0 -407.5 163t-163.5 405zM141 543q0 -221 147.5 -368.5t366.5 -147.5q215 0 361.5 155.5t146.5 356.5q0 199 -143 359.5t-365 160.5 q-219 0 -366.5 -147.5t-147.5 -368.5zM1227 592h991q-4 68 -36 143.5t-90 148t-155.5 120t-216.5 47.5q-193 0 -331.5 -129t-161.5 -330z" />
<glyph unicode="&#x178;" horiz-adv-x="1134" d="M31 1516h67l469 -924l467 924h70l-506 -994v-522h-61v522zM416 1645v237h59v-237h-59zM662 1645v237h59v-237h-59z" />
<glyph unicode="&#x2c6;" d="M168 1307l399 225l402 -225l-54 -31l-348 192l-348 -192z" />
<glyph unicode="&#x2dc;" d="M197 1391q88 72 200 71q76 0 174 -49q111 -55 183 -55q63 0 143 47l41 -43q-98 -66 -182 -66q-92 0 -187 52q-104 57 -172 57q-90 0 -159 -55z" />
<glyph unicode="&#x2000;" horiz-adv-x="972" />
<glyph unicode="&#x2001;" horiz-adv-x="1947" />
<glyph unicode="&#x2002;" horiz-adv-x="972" />
<glyph unicode="&#x2003;" horiz-adv-x="1947" />
<glyph unicode="&#x2004;" horiz-adv-x="649" />
<glyph unicode="&#x2005;" horiz-adv-x="485" />
<glyph unicode="&#x2006;" horiz-adv-x="323" />
<glyph unicode="&#x2007;" horiz-adv-x="323" />
<glyph unicode="&#x2008;" horiz-adv-x="241" />
<glyph unicode="&#x2009;" horiz-adv-x="389" />
<glyph unicode="&#x200a;" horiz-adv-x="106" />
<glyph unicode="&#x2010;" horiz-adv-x="544" d="M0 537v59h545v-59h-545z" />
<glyph unicode="&#x2011;" horiz-adv-x="544" d="M0 537v59h545v-59h-545z" />
<glyph unicode="&#x2012;" horiz-adv-x="544" d="M0 537v59h545v-59h-545z" />
<glyph unicode="&#x2013;" horiz-adv-x="1024" d="M72 537v59h880v-59h-880z" />
<glyph unicode="&#x2014;" horiz-adv-x="2048" d="M72 537v59h1904v-59h-1904z" />
<glyph unicode="&#x2018;" horiz-adv-x="567" d="M184 1516h68l131 -316h-68z" />
<glyph unicode="&#x2019;" horiz-adv-x="567" d="M184 1200l131 316h68l-131 -316h-68z" />
<glyph unicode="&#x201a;" horiz-adv-x="567" d="M184 -147l131 315h68l-131 -315h-68z" />
<glyph unicode="&#x201c;" horiz-adv-x="757" d="M188 1516h68l131 -316h-68zM371 1516h67l131 -316h-67z" />
<glyph unicode="&#x201d;" horiz-adv-x="757" d="M188 1200l131 316h68l-131 -316h-68zM371 1200l131 316h67l-131 -316h-67z" />
<glyph unicode="&#x201e;" horiz-adv-x="757" d="M188 -147l131 315h68l-131 -315h-68zM371 -147l131 315h67l-131 -315h-67z" />
<glyph unicode="&#x2022;" horiz-adv-x="768" d="M72 772q0 129 91 223.5t224 94.5q127 0 218 -93.5t91 -224.5t-92 -224t-219 -93q-129 0 -221 94t-92 223z" />
<glyph unicode="&#x2026;" horiz-adv-x="2048" d="M311 0v168h62v-168h-62zM993 0v168h62v-168h-62zM1675 0v168h62v-168h-62z" />
<glyph unicode="&#x202f;" horiz-adv-x="389" />
<glyph unicode="&#x2039;" horiz-adv-x="507" d="M109 563l227 398l41 -54l-197 -344l197 -338l-41 -53z" />
<glyph unicode="&#x203a;" horiz-adv-x="507" d="M131 225l197 338l-197 344l41 54l227 -398l-227 -391z" />
<glyph unicode="&#x205f;" horiz-adv-x="485" />
<glyph unicode="&#x20ac;" d="M55 608l11 54h155v77q0 94 2 144h-168l11 53h159q14 279 115 430q117 176 350 176q186 0 293 -106q88 -92 102 -238h-59q-16 131 -92 203q-90 86 -246 86q-199 0 -299 -156q-88 -135 -102 -395h622l-10 -53h-614q-2 -43 -2 -123q0 -14 1 -47t1 -51h573l-10 -54h-561 q16 -322 121 -456q94 -123 282 -123q168 0 258 90q63 63 88 192h62q-27 -154 -113 -237q-104 -100 -297 -101q-217 0 -332 146q-117 145 -133 489h-168z" />
<glyph unicode="&#x2122;" horiz-adv-x="1859" d="M18 1466l2 50h564v-50h-256v-860h-56v860h-254zM713 606v910h75l426 -824l428 824h74v-910h-55v830h-4l-426 -830h-33l-426 828h-4v-828h-55z" />
<glyph unicode="&#xe000;" horiz-adv-x="1085" d="M0 1085h1085v-1085h-1085v1085z" />
<glyph unicode="&#xfb01;" horiz-adv-x="804" d="M14 1032v53h179v107q0 334 339 350v-55q-39 -4 -59 -6t-69.5 -19.5t-77 -45t-52 -84t-24.5 -134.5v-113h395v-1085h-57v1032h-338v-1032h-57v1032h-179zM588 1329v187h57v-187h-57z" />
<glyph unicode="&#xfb02;" horiz-adv-x="804" d="M14 1032v53h179v107q0 334 339 350v-55q-39 -4 -59 -6t-69.5 -19.5t-77 -45t-52 -84t-24.5 -134.5v-113h338v431h57v-1516h-57v1032h-338v-1032h-57v1032h-179z" />
<glyph unicode="&#xfb03;" horiz-adv-x="1200" d="M14 1032v53h179v107q0 334 339 350v-55q-39 -4 -59 -6t-69.5 -19.5t-77 -45t-52 -84t-24.5 -134.5v-113h338v107q0 334 340 350v-55q-39 -4 -59.5 -6t-69.5 -19.5t-77 -45t-52.5 -84t-24.5 -134.5v-113h395v-1085h-57v1032h-338v-1032h-57v1032h-338v-1032h-57v1032h-179 zM983 1329v187h57v-187h-57z" />
<glyph unicode="&#xfb04;" horiz-adv-x="1200" d="M14 1032v53h179v107q0 334 339 350v-55q-39 -4 -59 -6t-69.5 -19.5t-77 -45t-52 -84t-24.5 -134.5v-113h338v107q0 334 340 350v-55q-39 -4 -59.5 -6t-69.5 -19.5t-77 -45t-52.5 -84t-24.5 -134.5v-113h338v431h57v-1516h-57v1032h-338v-1032h-57v1032h-338v-1032h-57 v1032h-179z" />
</font>
</defs>
</svg>
