<?xml version="1.0" standalone="no"?>
<!DOCTYPE svg PUBLIC "-//W3C//DTD SVG 1.1//EN" "http://www.w3.org/Graphics/SVG/1.1/DTD/svg11.dtd" >
<svg xmlns="http://www.w3.org/2000/svg">
<metadata>
This is a custom SVG webfont generated by Font Squirrel.
Copyright   : Copyright c The Font Bureau Inc 2000 All rights reserved
Designer    : Tobias FrereJones
Foundry URL : wwwfontbureaucom
</metadata>
<defs>
<font id="InterstateBlackRegular" horiz-adv-x="1208" >
<font-face units-per-em="2048" ascent="1638" descent="-410" />
<missing-glyph horiz-adv-x="675" />
<glyph unicode=" "  horiz-adv-x="675" />
<glyph unicode="&#x09;" horiz-adv-x="675" />
<glyph unicode="&#xa0;" horiz-adv-x="675" />
<glyph unicode="!" horiz-adv-x="716" d="M145 190q0 -45 16.5 -83.5t44 -67.5t66.5 -45.5t86 -16.5q45 0 85 16.5t68 45.5t44 67.5t16 83.5q0 92 -60 150.5t-153 58.5q-92 0 -152.5 -58.5t-60.5 -150.5zM156 922l67 -410h271l67 410v512h-405v-512z" />
<glyph unicode="&#x22;" horiz-adv-x="1269" d="M117 1434l80 -670h276l80 670h-436zM717 1434l80 -670h276l80 670h-436z" />
<glyph unicode="#" horiz-adv-x="1638" d="M102 250h215v-250h373v250h258v-250h373v250h215v313h-215v307h215v314h-215v250h-373v-250h-258v250h-373v-250h-215v-314h215v-307h-215v-313zM668 537v360h303v-360h-303z" />
<glyph unicode="$" horiz-adv-x="1353" d="M70 162q84 -53 192.5 -96t231.5 -64v-207h385v211q88 16 158.5 50t121.5 87.5t79 127t28 169.5q0 100 -31 174t-94.5 127.5t-161.5 92t-234 71.5q-70 16 -114.5 29.5t-71.5 27t-38 29t-11 35.5q0 39 28.5 63.5t118.5 24.5q111 0 207.5 -35t192.5 -100l192 301 q-80 57 -170 95t-200 55v208h-385v-211q-180 -39 -280.5 -148.5t-100.5 -274.5q0 -109 31.5 -182.5t95 -126t160 -87.5t225.5 -65q72 -16 119 -31.5t74.5 -31t38.5 -32t11 -36.5q0 -51 -40 -72t-146 -21q-49 0 -106.5 12.5t-113.5 33t-108.5 46t-91.5 52.5z" />
<glyph unicode="%" horiz-adv-x="2211" d="M61 1008q0 -111 32 -195t88.5 -139.5t134 -83t167.5 -27.5t168 29t135.5 85t90 140t32.5 195t-31.5 194.5t-88 139t-134 83t-168.5 27.5q-90 0 -167.5 -28.5t-135 -85t-90.5 -140t-33 -194.5zM362 1012q0 129 29 175t94 46q61 0 92 -48t31 -177t-28.5 -175.5t-92.5 -46.5 q-63 0 -94 48.5t-31 177.5zM510 0h313l879 1434h-313zM1303 422q0 -111 31.5 -195t88 -139t134 -83t167.5 -28t168 29t135.5 85t90 140t32.5 195t-31.5 195t-88 139t-134 82.5t-167.5 27.5t-168 -28.5t-135.5 -85t-90 -140t-32.5 -194.5zM1604 426q0 129 28.5 175t93.5 46 q61 0 92 -48t31 -177t-28.5 -175t-91.5 -46t-94 48t-31 177z" />
<glyph unicode="&#x26;" horiz-adv-x="1478" d="M53 365q0 -102 33 -176t91.5 -121.5t137 -69t170.5 -21.5q131 0 240 35t207 105l102 -117h449l-312 358q53 70 104.5 149t104.5 171l-299 156q-35 -66 -66.5 -122.5t-60.5 -103.5l-307 357q-25 29 -36 50t-11 50q0 27 26.5 44t73.5 17q92 0 167 -25.5t155 -70.5l162 295 q-102 59 -214 95t-265 36q-106 0 -196.5 -23.5t-157 -71.5t-103.5 -121t-37 -169q0 -84 38 -151.5t91 -128.5l12 -15q-57 -33 -111.5 -75t-95.5 -93t-66.5 -112t-25.5 -131zM428 414q0 80 107 153l200 -227q-72 -47 -151 -47q-90 0 -123 34t-33 87z" />
<glyph unicode="'" horiz-adv-x="702" d="M127 1434l80 -670h289l79 670h-448z" />
<glyph unicode="(" horiz-adv-x="880" d="M119 621q0 -125 30.5 -241t84 -221.5t122 -201.5t146.5 -182l264 157q-57 88 -100 169t-71 164t-42 172t-14 194q0 100 14 188t42 169t71 162t100 171l-264 158q-78 -86 -146.5 -182.5t-122 -203t-84 -224t-30.5 -248.5z" />
<glyph unicode=")" horiz-adv-x="880" d="M115 -68l264 -157q76 86 145.5 182t122.5 202.5t84 224.5t31 249q0 125 -31 240.5t-84 221t-122.5 202t-145.5 182.5l-264 -158q57 -90 100 -170t70.5 -163t42 -172t14.5 -193q0 -102 -14.5 -189.5t-42 -168.5t-70.5 -163t-100 -170z" />
<glyph unicode="*" horiz-adv-x="1126" d="M61 815l144 -244l272 222l-55 -351h283l-58 346l273 -223l145 248l-354 127l354 127l-145 246l-273 -226l58 347h-283l55 -349l-272 226l-144 -248l349 -125z" />
<glyph unicode="+" horiz-adv-x="1323" d="M113 528h362v-378h373v378h362v353h-362v379h-373v-379h-362v-353z" />
<glyph unicode="," horiz-adv-x="643" d="M117 -254h252l196 682h-420z" />
<glyph unicode="-" horiz-adv-x="991" d="M139 541h713v385h-713v-385z" />
<glyph unicode="." horiz-adv-x="643" d="M86 213q0 -102 66.5 -169t169.5 -67q102 0 168.5 67t66.5 169t-66.5 166.5t-168.5 64.5t-169 -64.5t-67 -166.5z" />
<glyph unicode="/" horiz-adv-x="1044" d="M-33 -184h389l721 1802h-389z" />
<glyph unicode="0" horiz-adv-x="1466" d="M84 715q0 -178 49 -316.5t135 -231.5t205 -141.5t258 -48.5t259 49.5t207 143.5t136 232.5t49 316.5t-49 316.5t-135 231.5t-205 141t-258 48t-259 -49t-207 -143.5t-136 -232.5t-49 -316zM492 719q0 199 61 297t178 98t180.5 -100.5t63.5 -298.5q0 -199 -61.5 -297.5 t-178.5 -98.5t-180 100.5t-63 299.5z" />
<glyph unicode="1" horiz-adv-x="862" d="M82 987h242v-987h389v1434h-332q-16 -49 -39 -85t-57.5 -58.5t-83.5 -35t-119 -16.5v-252z" />
<glyph unicode="2" horiz-adv-x="1433" d="M109 0h1171v324h-748q12 33 35 64.5t68 67.5t115.5 76.5t179.5 90.5q102 47 168.5 94t104.5 98t52.5 108.5t14.5 129.5q0 197 -137.5 300t-405.5 103q-184 0 -330.5 -49t-283.5 -137l182 -293q109 72 213 108.5t213 36.5q86 0 123 -25.5t37 -72.5q0 -23 -6.5 -38 t-25 -31.5t-52 -35t-90.5 -42.5q-135 -59 -244 -136t-185.5 -181.5t-120.5 -242t-48 -317.5z" />
<glyph unicode="3" horiz-adv-x="1402" d="M78 197q117 -102 268.5 -161t335.5 -59q145 0 262 28t198 86.5t125 148.5t44 215q0 68 -20.5 121t-54.5 91t-80 61.5t-95 35.5q37 18 71.5 41.5t60.5 57.5t42 78t16 103q0 113 -41 192t-116.5 128t-181 70.5t-234.5 21.5q-94 0 -174 -14.5t-147.5 -40t-126 -59 t-107.5 -72.5l188 -258q84 59 168 91t189 32q106 0 152 -30t46 -87q0 -72 -35.5 -96.5t-130.5 -24.5h-184v-309h207q111 0 157 -31t46 -106q0 -74 -55.5 -110t-180.5 -36q-119 0 -219 41t-188 109z" />
<glyph unicode="4" horiz-adv-x="1517" d="M84 256h809v-256h356v246h185v336h-185v852h-393l-772 -887v-291zM518 575q41 39 86 89.5t103 119.5l20 25q35 43 60.5 74.5t46 57.5t36 47.5t29.5 43.5q-2 -25 -3 -64.5t-2 -83.5t-1 -87v-74v-141h-107q-74 0 -144.5 -1.5t-123.5 -5.5z" />
<glyph unicode="5" horiz-adv-x="1456" d="M92 152q133 -80 279.5 -127.5t333.5 -47.5q307 0 476 135.5t169 387.5q0 119 -37 209t-103.5 148t-161 88t-210.5 30q-109 0 -179.5 -17.5t-130.5 -46.5l13 199h723v324h-1045l-49 -744l340 -115q53 39 112.5 60.5t151.5 21.5t142.5 -42t50.5 -126q0 -86 -56.5 -134 t-195.5 -48q-117 0 -237 40t-224 102z" />
<glyph unicode="6" horiz-adv-x="1425" d="M82 571q0 -147 45 -258.5t125 -186.5t192.5 -112t247.5 -37q152 0 272.5 35t205.5 101.5t130.5 163t45.5 217.5q0 113 -37 196.5t-104.5 139t-161 82t-203.5 26.5q-129 0 -214 -22.5t-155 -61.5q41 61 99.5 112.5t140.5 88.5t190.5 56t249.5 19v326q-205 0 -363.5 -39 t-277.5 -105.5t-201 -155.5t-132 -187.5t-72.5 -201t-22.5 -196.5zM461 465q0 86 63.5 133t196.5 47q115 0 178.5 -47t63.5 -131q0 -86 -69 -131t-181 -45q-131 0 -191.5 48t-60.5 126z" />
<glyph unicode="7" horiz-adv-x="1417" d="M100 1110h713q-104 -106 -181 -224t-129 -253t-78 -292t-28 -341h389q0 174 19.5 321.5t74 282.5t151.5 266t255 277v287h-1186v-324z" />
<glyph unicode="8" horiz-adv-x="1495" d="M94 446q0 -109 45 -195.5t130 -147t205 -93.5t271 -33q150 0 272 33t207 93.5t131 147.5t46 195q0 70 -21.5 123.5t-55.5 92t-73 64.5t-73 40q68 43 114.5 104.5t46.5 159.5q0 102 -43 182t-121.5 134.5t-187 82t-237.5 27.5t-239 -27.5t-188.5 -82t-122.5 -134 t-44 -182.5q0 -98 48 -163.5t113 -104.5q-35 -14 -73.5 -39t-72.5 -63.5t-55.5 -91t-21.5 -122.5zM475 451q0 74 66.5 122t203.5 48q135 0 205 -48.5t70 -121.5q0 -74 -67.5 -123t-202.5 -49t-205 49t-70 123zM537 1024q0 27 10 52.5t34.5 46t64.5 32.5t99 12q57 0 98.5 -12 t67 -32.5t36.5 -46t11 -52.5q0 -53 -46 -95t-162 -42q-117 0 -165 42t-48 95z" />
<glyph unicode="9" horiz-adv-x="1425" d="M80 940q0 -115 37 -198t104.5 -138t160.5 -81.5t204 -26.5q129 0 214 22.5t154 61.5q-41 -61 -99 -112.5t-140 -88.5t-190.5 -56.5t-250.5 -19.5v-326q205 0 364 39t277.5 105.5t200.5 156t132 187.5t72.5 200.5t22.5 196.5q0 147 -45 259t-124.5 186.5t-192.5 111.5 t-248 37q-152 0 -273.5 -35t-205.5 -101.5t-129 -162.5t-45 -217zM463 967q0 86 68.5 131t181.5 45q131 0 191.5 -48t60.5 -126q0 -86 -63.5 -133.5t-196.5 -47.5q-115 0 -178.5 47.5t-63.5 131.5z" />
<glyph unicode=":" horiz-adv-x="643" d="M92 207q0 -98 65.5 -164t164.5 -66q49 0 91 17.5t72.5 48.5t48 73t17.5 91q0 98 -65.5 161.5t-163.5 63.5t-164 -63.5t-66 -161.5zM92 872q0 -49 17.5 -91t48 -72.5t72.5 -48t92 -17.5q49 0 91 17.5t72.5 48t48 72.5t17.5 91q0 98 -65.5 162t-163.5 64t-164 -64t-66 -162 z" />
<glyph unicode=";" horiz-adv-x="643" d="M92 872q0 -98 64.5 -163.5t165.5 -65.5q49 0 91 17.5t72.5 48t48 72.5t17.5 91q0 100 -65.5 163t-163.5 63q-100 0 -165 -63t-65 -163zM96 -248h244l192 666h-409z" />
<glyph unicode="&#x37e;" horiz-adv-x="643" d="M92 872q0 -98 64.5 -163.5t165.5 -65.5q49 0 91 17.5t72.5 48t48 72.5t17.5 91q0 100 -65.5 163t-163.5 63q-100 0 -165 -63t-65 -163zM96 -248h244l192 666h-409z" />
<glyph unicode="&#x3c;" horiz-adv-x="1054" d="M117 582l813 -605v488l-400 256l400 256v479l-813 -604v-270z" />
<glyph unicode="=" horiz-adv-x="1323" d="M164 238h995v372h-995v-372zM164 799h995v372h-995v-372z" />
<glyph unicode="&#x3e;" horiz-adv-x="1054" d="M125 -23l813 605v270l-813 604v-487l399 -256l-399 -256v-480z" />
<glyph unicode="?" horiz-adv-x="1232" d="M43 1280l182 -293q90 59 187.5 97t208.5 38q84 0 121.5 -25.5t37.5 -72.5q0 -43 -30.5 -69.5t-96.5 -57.5q-78 -37 -129 -77t-81.5 -87t-43 -101t-12.5 -120h367q0 74 36.5 122t124.5 91q131 63 192.5 139t61.5 199q0 98 -37.5 172t-108.5 123t-171 73.5t-225 24.5 q-172 0 -313.5 -47t-270.5 -129zM354 190q0 -45 16.5 -83.5t44 -67.5t66.5 -45.5t86 -16.5q45 0 85 16.5t68 45.5t44 67.5t16 83.5q0 92 -60.5 150.5t-152.5 58.5t-152.5 -58.5t-60.5 -150.5z" />
<glyph unicode="@" horiz-adv-x="1712" d="M117 717q0 -160 58 -296t157.5 -234.5t234.5 -154t289 -55.5q158 0 318 68l-58 133q-57 -29 -123.5 -42t-136.5 -13q-127 0 -234.5 43t-185.5 121t-123 187.5t-45 244.5q0 123 41 231.5t118 188.5t185.5 126t243.5 46q127 0 234.5 -43t186.5 -120t123 -181.5t44 -227.5 q0 -147 -31 -216.5t-108 -69.5q-61 0 -87 34.5t-26 100.5v256q0 137 -75 214t-240 77q-102 0 -184.5 -18.5t-153.5 -53.5l67 -164q119 53 232 53q66 0 98.5 -20.5t32.5 -71.5v-55q-74 39 -195 39q-125 0 -203.5 -64.5t-78.5 -191.5q0 -133 69.5 -202t183.5 -69q96 0 171 25 t147 72q35 -41 89 -71t142 -30q141 0 221 101.5t80 322.5q0 143 -55 274.5t-153.5 229.5t-234.5 156.5t-296 58.5t-296 -58.5t-234.5 -157.5t-153.5 -234t-55 -289zM709 592q0 94 114 94q82 0 146 -29v-122q-27 -14 -69 -26.5t-77 -12.5q-59 0 -86.5 27.5t-27.5 68.5z" />
<glyph unicode="A" horiz-adv-x="1560" d="M59 0h426l78 252h430l78 -252h430l-520 1434h-401zM659 567l27 95q18 68 32.5 118.5t26 91.5t19.5 76t14 72q6 -37 14.5 -71t19.5 -74.5t25.5 -92t32.5 -120.5l27 -95h-238z" />
<glyph unicode="B" horiz-adv-x="1468" d="M145 0h689q272 0 405 121t133 342q0 123 -53 199.5t-152 117.5q72 41 122 102.5t50 178.5q0 180 -117.5 276.5t-383.5 96.5h-693v-1434zM526 313v279h316q72 0 106.5 -37t34.5 -100q0 -61 -35 -101.5t-108 -40.5h-314zM526 895v225h299q72 0 98.5 -32.5t26.5 -79.5 q0 -51 -27.5 -82t-97.5 -31h-299z" />
<glyph unicode="C" horiz-adv-x="1404" d="M86 717q0 -160 42 -295t125 -233.5t205 -155t281 -56.5q127 0 223.5 32t167 83t119.5 117.5t86 138.5l-336 178q-29 -51 -55 -89t-55 -63.5t-63.5 -37.5t-82.5 -12q-66 0 -110.5 30.5t-74.5 84t-43 125t-13 153.5q0 86 13 157.5t43 124t75 82t106 29.5q49 0 84 -15.5 t61.5 -43t47 -68.5t39.5 -90l360 141q-37 100 -84 179t-115.5 133.5t-164 82t-226.5 27.5q-145 0 -265 -51t-207 -146.5t-135 -232.5t-48 -309z" />
<glyph unicode="D" horiz-adv-x="1478" d="M145 0h465q190 0 335 38t243 123t147 223t49 341t-52 338t-147 218t-232.5 118t-305.5 35h-502v-1434zM547 340v754h98q92 0 155.5 -21.5t102.5 -66.5t56.5 -117t17.5 -170q0 -106 -18.5 -179t-60.5 -117t-107.5 -63.5t-157.5 -19.5h-86z" />
<glyph unicode="E" horiz-adv-x="1366" d="M145 0h1112v334h-718v246h424v329h-424v191h704v334h-1098v-1434z" />
<glyph unicode="F" horiz-adv-x="1347" d="M145 0h396v561h448v336h-448v199h739v338h-1135v-1434z" />
<glyph unicode="G" horiz-adv-x="1476" d="M86 717q0 -176 48 -313.5t135 -232.5t209 -144.5t270 -49.5q313 0 477 163t164 472v174h-631v-297h260q-6 -37 -20.5 -68.5t-42 -56t-70.5 -38t-107 -13.5q-139 0 -207.5 94.5t-68.5 309.5q0 86 13 157.5t42 124t77 82t118 29.5q102 0 154 -52t87 -145l361 142 q-39 100 -87 176t-117 126t-165 74.5t-231 24.5q-164 0 -288 -56.5t-209 -154.5t-128 -233t-43 -295z" />
<glyph unicode="H" horiz-adv-x="1548" d="M145 0h406v565h446v-565h406v1434h-406v-523h-446v523h-406v-1434z" />
<glyph unicode="I" horiz-adv-x="716" d="M156 0h405v1434h-405v-1434z" />
<glyph unicode="J" horiz-adv-x="1413" d="M47 473q27 -113 75 -205t122.5 -156.5t179 -99.5t248.5 -35q152 0 265.5 42t188 121t111.5 190.5t37 253.5v850h-406v-881q0 -104 -47 -164.5t-143 -60.5q-102 0 -153.5 62.5t-88.5 184.5z" />
<glyph unicode="K" horiz-adv-x="1503" d="M145 0h406v432l147 178l299 -610h471l-481 928l432 506h-483l-115 -146q-35 -43 -73.5 -94t-76.5 -102.5t-71 -98.5t-55 -82q4 78 5 170.5t1 184.5v168h-406v-1434z" />
<glyph unicode="L" horiz-adv-x="1259" d="M145 0h1037v346h-635v1088h-402v-1434z" />
<glyph unicode="M" horiz-adv-x="1728" d="M145 0h373v342q0 106 -2 201.5t-6 179.5q16 -41 36.5 -90t43 -99.5t45 -98.5t41.5 -87l188 -397l189 397q18 39 40.5 87t45 98.5t43 99.5t37.5 90q-4 -84 -6.5 -179t-2.5 -202v-342h373v1434h-360l-176 -383q-68 -147 -115 -259t-66 -174q-8 31 -25.5 76t-41 101.5 t-52 121t-61.5 134.5l-176 383h-365v-1434z" />
<glyph unicode="N" horiz-adv-x="1548" d="M145 0h381v438v99q0 55 -2 107t-4 96t-6 69q14 -25 42 -68t59.5 -91t64.5 -96t57 -81l342 -473h324v1434h-381v-392v-98q0 -55 2 -107.5t4 -96.5t6 -68q-12 23 -38.5 65.5t-59.5 92t-66.5 98.5t-58.5 82l-315 424h-351v-1434z" />
<glyph unicode="O" horiz-adv-x="1499" d="M86 715q0 -178 48 -316.5t136 -231.5t210 -141.5t268 -48.5q145 0 268 49.5t211 143.5t137 232.5t49 316.5t-49 316.5t-136 231.5t-209 141t-267 48t-268.5 -49t-211.5 -143.5t-137 -232.5t-49 -316zM498 719q0 195 64.5 293t185.5 98t187 -100.5t66 -294.5 q0 -195 -64.5 -293t-184.5 -98q-121 0 -187.5 100t-66.5 295z" />
<glyph unicode="P" horiz-adv-x="1390" d="M145 0h392v465h198q129 0 236.5 25.5t185.5 84t121 152.5t43 231q0 129 -40 220.5t-113.5 147.5t-177 82t-228.5 26h-617v-1434zM537 788v322h215q96 0 135 -43t39 -115q0 -82 -41 -123t-140 -41h-208z" />
<glyph unicode="Q" horiz-adv-x="1499" d="M86 715q0 -178 48 -316.5t136 -231.5t210 -141.5t268 -48.5q115 0 225 41l104 -147l269 176l-117 152q86 98 135 228t49 292q0 178 -49 316.5t-136 231.5t-209 141t-267 48t-268.5 -49t-211.5 -143.5t-137 -232.5t-49 -316zM498 719q0 195 64.5 293t185.5 98 t195.5 -100.5t74.5 -294.5q0 -123 -19 -205l-88 127l-264 -172l123 -162h-18q-123 0 -188.5 105.5t-65.5 310.5z" />
<glyph unicode="R" horiz-adv-x="1466" d="M145 0h392v483h159l234 -483h444l-287 547q119 53 189 155.5t70 264.5q0 127 -40 216t-114 144t-177.5 81t-228.5 26h-641v-1434zM537 797v313h239q94 0 134 -43t40 -111q0 -78 -41 -118.5t-139 -40.5h-233z" />
<glyph unicode="S" horiz-adv-x="1390" d="M90 152q113 -74 271.5 -124.5t332.5 -50.5q129 0 237.5 27t187.5 82t123 143t44 211q0 100 -30.5 174t-94 127.5t-162 92t-233.5 71.5q-70 16 -115 29.5t-71.5 27t-38 29t-11.5 35.5q0 39 29 63.5t119 24.5q111 0 207 -35t192 -100l193 311q-115 80 -251 123t-321 43 q-129 0 -233.5 -32.5t-178 -92t-113.5 -143.5t-40 -184q0 -109 32 -182.5t95.5 -126t159.5 -87.5t225 -65q72 -16 119 -31.5t74.5 -31t39 -32t11.5 -36.5q0 -51 -40 -72t-147 -21q-49 0 -106 12.5t-113.5 33t-108.5 46t-91 52.5z" />
<glyph unicode="T" horiz-adv-x="1372" d="M86 1087h401v-1087h398v1087h401v347h-1200v-347z" />
<glyph unicode="U" horiz-adv-x="1531" d="M137 612q0 -170 47 -290.5t130 -197.5t198 -112t250 -35t250.5 35t200.5 112t133.5 197.5t48.5 290.5v822h-406v-822q0 -133 -52 -208.5t-169 -75.5t-171 75.5t-54 208.5v822h-406v-822z" />
<glyph unicode="V" horiz-adv-x="1507" d="M59 1434l494 -1434h401l494 1434h-442l-105 -385q-18 -68 -39.5 -152t-41 -168t-37 -159.5t-27.5 -127.5q-10 51 -27.5 127t-37 161t-41 168t-40.5 151l-104 385h-447z" />
<glyph unicode="W" horiz-adv-x="1896" d="M78 1434l342 -1434h362l66 311q18 82 34.5 171t30 170t21.5 147.5t12 105.5q2 -39 11.5 -105.5t22.5 -147.5t29.5 -170t34.5 -171l66 -311h367l342 1434h-406l-39 -240q-12 -76 -25.5 -159t-24.5 -165t-20.5 -158.5t-15.5 -140.5q-6 63 -17 139t-25.5 157t-31 164 t-32.5 161l-49 242h-365l-49 -242q-16 -78 -32.5 -161t-31 -164t-26 -156.5t-17.5 -139.5q-6 63 -15 140t-20.5 159t-24.5 165t-26 159l-39 240h-409z" />
<glyph unicode="X" horiz-adv-x="1499" d="M59 0h451l96 166q41 68 78 137.5t61 126.5q27 -59 63 -128t75 -136l96 -166h461l-469 733l452 701h-450l-80 -140q-39 -68 -77 -136t-62 -126q-23 57 -61 126t-77 136l-79 140h-461l452 -709z" />
<glyph unicode="Y" horiz-adv-x="1527" d="M33 1434l530 -906v-528h402v535l530 899h-455l-110 -217q-57 -113 -100.5 -210.5t-63.5 -160.5q-20 63 -63.5 160.5t-100.5 210.5l-110 217h-459z" />
<glyph unicode="Z" horiz-adv-x="1454" d="M135 0h1176v324h-281h-108q-57 0 -113.5 -1t-110 -2.5t-94.5 -3.5q25 27 59.5 65t72.5 81t77 88t74 86l420 512v285h-1131v-324h236h108q57 0 113.5 1t110 2t94.5 3q-25 -27 -60 -64.5t-72.5 -80.5t-77.5 -88t-73 -86l-420 -512v-285z" />
<glyph unicode="[" horiz-adv-x="948" d="M162 -225h624v301h-254v1057h254v301h-624v-1659z" />
<glyph unicode="\" horiz-adv-x="1044" d="M-33 1618l721 -1802h389l-721 1802h-389z" />
<glyph unicode="]" horiz-adv-x="948" d="M162 76v-301h624v1659h-624v-301h254v-1057h-254z" />
<glyph unicode="^" horiz-adv-x="1269" d="M51 741h381l201 375l201 -375h385l-420 693h-328z" />
<glyph unicode="_" horiz-adv-x="1024" d="M0 -125v-281h1024v281h-1024z" />
<glyph unicode="`" horiz-adv-x="1024" d="M186 1546l322 -327h262l-147 327h-437z" />
<glyph unicode="a" horiz-adv-x="1142" d="M78 348q0 -182 95 -276.5t253 -94.5q74 0 141.5 27t120.5 68v-72h348v698q0 186 -103.5 293t-328.5 107q-141 0 -252.5 -25.5t-210.5 -73.5l97 -243q78 43 146.5 60.5t152.5 17.5q76 0 113.5 -28t37.5 -99v-54q-45 20 -97 32.5t-126 12.5q-86 0 -156.5 -22.5t-122 -66.5 t-80 -109.5t-28.5 -151.5zM416 354q0 115 114 115q53 0 90 -8t68 -23v-147q-27 -23 -68.5 -38t-89.5 -15q-59 0 -86.5 32.5t-27.5 83.5z" />
<glyph unicode="b" horiz-adv-x="1171" d="M115 0h368v72q45 -35 102.5 -65t137.5 -30q176 0 274.5 137.5t98.5 426.5q0 150 -28 255t-76 172.5t-113.5 98.5t-141.5 31q-86 0 -142 -28t-112 -71v494l-368 -147v-1346zM483 332v411q29 23 59.5 37.5t71.5 14.5q29 0 51.5 -11.5t37 -41t21.5 -82t7 -132.5 q0 -76 -7 -124t-21.5 -75.5t-36 -37.5t-50.5 -10q-43 0 -73.5 14t-59.5 37z" />
<glyph unicode="c" horiz-adv-x="1064" d="M72 541q0 -274 133 -419t370 -145q72 0 130.5 14.5t110.5 45.5t98.5 79t93.5 117l-234 183q-51 -76 -92 -108t-94 -32q-152 0 -152 259q0 129 35 196.5t107 67.5q59 0 93 -34t72 -106l254 193q-35 57 -75.5 102t-90 77t-111 49.5t-136.5 17.5q-129 0 -225.5 -41 t-160 -115t-95 -176t-31.5 -225z" />
<glyph unicode="d" horiz-adv-x="1171" d="M76 535q0 -150 27.5 -255.5t75.5 -173t112.5 -98.5t140.5 -31q86 0 143.5 28t110.5 71v-76h371v1493l-371 -147v-342q-45 35 -101.5 64.5t-138.5 29.5q-176 0 -273 -136t-97 -427zM438 547q0 76 7.5 124t22.5 75.5t36.5 38t50.5 10.5q43 0 72.5 -14.5t58.5 -37.5v-411 q-29 -23 -58.5 -37t-70.5 -14q-29 0 -51.5 11t-37.5 40.5t-22.5 82t-7.5 132.5z" />
<glyph unicode="e" horiz-adv-x="1114" d="M72 537q0 -123 32.5 -226.5t96 -177.5t158 -115t214.5 -41q127 0 232.5 32t206.5 91l-142 236q-80 -41 -143 -58.5t-135 -17.5q-76 0 -124 41t-58 131h630q2 14 2 31v41q0 299 -129 446.5t-350 147.5q-106 0 -196.5 -36t-156 -106.5t-102 -175t-36.5 -243.5zM410 662 q18 164 143 163q82 0 115.5 -41t48.5 -122h-307z" />
<glyph unicode="f" horiz-adv-x="784" d="M74 786h114v-786h363v786h160v289h-166v84q0 37 16.5 52.5t56.5 15.5q57 0 107 -23v238q-39 20 -100.5 32.5t-132.5 12.5q-158 0 -231 -70.5t-73 -236.5v-105h-114v-289z" />
<glyph unicode="g" horiz-adv-x="1171" d="M76 535q0 -150 27.5 -254.5t75.5 -169t112.5 -94t140.5 -29.5q86 0 143.5 27.5t110.5 70.5v-37q0 -55 -14.5 -92t-50 -62.5t-99 -43t-162.5 -33.5l136 -213q145 20 251.5 58t175 102.5t101.5 161t33 235.5v913h-371v-71q-45 35 -101.5 64.5t-138.5 29.5q-176 0 -273 -136 t-97 -427zM438 547q0 76 7.5 124t22.5 75.5t36.5 38t50.5 10.5q43 0 72.5 -14.5t58.5 -37.5v-411q-29 -23 -58.5 -37t-70.5 -14q-29 0 -51.5 11t-37.5 40.5t-22.5 82t-7.5 132.5z" />
<glyph unicode="h" d="M115 0h368v614q0 102 33 137t92 35q57 0 90 -35.5t33 -140.5v-610h371v657q0 213 -85 327t-263 114q-96 0 -157.5 -28t-113.5 -66v489l-368 -147v-1346z" />
<glyph unicode="i" horiz-adv-x="618" d="M98 1335q0 -86 59.5 -134t151.5 -48q96 0 155.5 48t59.5 134q0 78 -59 128t-156 50q-92 0 -151.5 -50t-59.5 -128zM125 0h369v1075h-369v-1075z" />
<glyph unicode="j" horiz-adv-x="618" d="M-113 -141l123 -254q127 14 219.5 47t150.5 91t86 145t28 214v973h-369v-993q0 -55 -11.5 -93t-39 -63.5t-73.5 -42t-114 -24.5zM98 1335q0 -86 59.5 -134t151.5 -48q96 0 155.5 48t59.5 134q0 78 -59 128t-156 50q-92 0 -151.5 -50t-59.5 -128z" />
<glyph unicode="k" horiz-adv-x="1175" d="M115 0h368v326l97 123l161 -449h398l-287 752l278 323h-419l-72 -92q-16 -23 -40 -54.5t-47.5 -65.5t-44 -64.5t-30.5 -48.5q0 25 1 65.5t2 84.5t2 86t1 69v438l-368 -147v-1346z" />
<glyph unicode="l" horiz-adv-x="618" d="M125 0h369v1493l-369 -147v-1346z" />
<glyph unicode="m" horiz-adv-x="1802" d="M115 0h368v614q0 102 31 137t88 35q55 0 87 -35.5t32 -140.5v-610h369v614q0 102 30.5 137t87.5 35q55 0 86 -35.5t31 -140.5v-610h371v657q0 213 -82 327t-264 114q-111 0 -183.5 -37t-130.5 -84q-51 55 -118.5 88t-178.5 33q-88 0 -149.5 -29t-106.5 -65v71h-368v-1075 z" />
<glyph unicode="n" d="M115 0h368v614q0 102 33 137t92 35q57 0 90 -35.5t33 -140.5v-610h371v657q0 213 -85 327t-263 114q-96 0 -157.5 -28t-113.5 -66v71h-368v-1075z" />
<glyph unicode="o" horiz-adv-x="1165" d="M72 539q0 -139 37.5 -244t105.5 -175.5t162 -106.5t205 -36t205 36t162.5 106.5t106.5 175t38 244.5q0 141 -38 245.5t-106.5 174t-163 104.5t-204.5 35q-111 0 -205 -35t-162 -104.5t-105.5 -174t-37.5 -245.5zM436 539q0 137 37 198.5t109 61.5t108.5 -61.5 t36.5 -198.5q0 -262 -145 -263q-146 1 -146 263z" />
<glyph unicode="p" horiz-adv-x="1171" d="M115 -395l368 147v320q45 -35 102.5 -65t137.5 -30q176 0 274.5 137.5t98.5 426.5q0 150 -28 255t-76 172.5t-113.5 98.5t-141.5 31q-86 0 -142 -28t-112 -71v76h-368v-1470zM483 332v411q29 23 59.5 37.5t71.5 14.5q29 0 51.5 -11.5t37 -41t21.5 -82t7 -132.5 q0 -76 -7 -124t-21.5 -75.5t-36 -37.5t-50.5 -10q-43 0 -73.5 14t-59.5 37z" />
<glyph unicode="q" horiz-adv-x="1171" d="M76 535q0 -150 27.5 -255.5t75.5 -173t112.5 -98.5t140.5 -31q86 0 143.5 28t110.5 71v-471l371 147v1323h-371v-71q-45 35 -101.5 64.5t-138.5 29.5q-176 0 -273 -136t-97 -427zM438 547q0 76 7.5 124t22.5 75.5t36.5 38t50.5 10.5q43 0 72.5 -14.5t58.5 -37.5v-411 q-29 -23 -58.5 -37t-70.5 -14q-29 0 -51.5 11t-37.5 40.5t-22.5 82t-7.5 132.5z" />
<glyph unicode="r" horiz-adv-x="917" d="M115 0h368v586q0 98 39 136t107 38q53 0 95 -25.5t77 -64.5l86 383q-33 20 -74 32.5t-100 12.5q-72 0 -127.5 -27t-102.5 -74v78h-368v-1075z" />
<glyph unicode="s" horiz-adv-x="1071" d="M88 66q104 -41 217 -65t232 -24q207 0 325.5 88.5t118.5 274.5q0 80 -23.5 135t-76 96t-133 72t-193.5 62q-35 10 -56.5 18t-32.5 16.5t-14 17.5t-3 21q0 25 18 36t72 11q72 0 153.5 -21.5t188.5 -68.5l82 285q-53 18 -102.5 33.5t-98.5 24.5t-100.5 14.5t-112.5 5.5 q-221 0 -329.5 -93.5t-108.5 -259.5q0 -84 23.5 -141t75.5 -99t137 -74t210 -64q53 -14 69.5 -27.5t16.5 -40.5q0 -25 -22.5 -37t-75.5 -12q-72 0 -172.5 25.5t-198.5 68.5z" />
<glyph unicode="t" horiz-adv-x="921" d="M59 786h164v-467q0 -184 68.5 -263t216.5 -79q78 0 145.5 15.5t120.5 42.5l47 313q-43 -29 -76.5 -43t-70.5 -14q-47 0 -69.5 22.5t-22.5 83.5v389h233v289h-233v418l-359 -145v-273h-164v-289z" />
<glyph unicode="u" d="M106 418q0 -213 85 -327t264 -114q94 0 156.5 28t111.5 67v-72h371v1075h-371v-614q0 -102 -33 -137t-90 -35t-90 35.5t-33 140.5v610h-371v-657z" />
<glyph unicode="v" horiz-adv-x="1169" d="M31 1075l372 -1075h363l373 1075h-389l-99 -395q-16 -68 -36.5 -156t-30.5 -166q-10 78 -29.5 166t-36.5 156l-96 395h-391z" />
<glyph unicode="w" horiz-adv-x="1517" d="M35 1075l303 -1075h291l45 215q10 49 22.5 112.5t23.5 127t20.5 119t15.5 83.5q4 -29 14 -84t22 -118l22 -127q11 -63 22 -109l45 -219h299l303 1075h-353l-28 -160q-10 -47 -20.5 -109.5t-20.5 -126t-18.5 -118.5t-12.5 -84q-6 29 -15 84t-22 119l-24 127 q-12 63 -23 113l-33 155h-303l-35 -155q-10 -49 -22 -113l-25 -127q-12 -63 -21 -118.5t-15 -84.5q-4 29 -12.5 84t-18.5 118.5t-20.5 126t-18.5 109.5l-31 160h-356z" />
<glyph unicode="x" horiz-adv-x="1175" d="M31 0h381l55 98q27 47 56.5 107.5t56.5 118.5q25 -57 55.5 -118t56.5 -108l53 -98h402l-371 578l330 497h-383l-12 -24q-25 -49 -59 -116t-56 -126q-18 57 -52 125l-59 117l-12 24h-401l325 -514z" />
<glyph unicode="y" d="M31 1075l409 -1120l-135 -334h352l521 1454h-387l-101 -379q-10 -35 -21.5 -86t-23.5 -104t-22.5 -105.5t-16.5 -91.5q-4 39 -14 90.5t-22.5 105.5t-25 103t-20.5 84l-102 383h-391z" />
<glyph unicode="z" horiz-adv-x="1157" d="M106 0h934v299h-223q-68 0 -146.5 -3t-129.5 -5l52 52q32 32 67.5 69t73.5 75.5t71 75.5l235 256v256h-909v-299h199q68 0 146.5 3t129.5 5q-23 -20 -53.5 -52t-66 -68.5t-73.5 -75.5t-71 -76l-236 -256v-256z" />
<glyph unicode="{" horiz-adv-x="1044" d="M96 457h70q49 0 85 -21.5t36 -79.5v-153q0 -211 153.5 -319.5t493.5 -108.5v237q-74 8 -121 25.5t-72.5 47.5t-36 72t-10.5 101v49q0 90 -17.5 145.5t-51 86t-80.5 46t-109 25.5q61 10 108.5 24.5t81 46.5t51 86t17.5 144v50q0 57 10.5 100t36 72.5t72.5 47t121 25.5v238 q-340 0 -493.5 -108.5t-153.5 -319.5v-152q0 -57 -36 -78.5t-85 -21.5h-70v-307z" />
<glyph unicode="|" horiz-adv-x="663" d="M150 -379h364v2017h-364v-2017z" />
<glyph unicode="}" horiz-adv-x="1044" d="M111 12v-237q340 0 493.5 108.5t153.5 319.5v151q0 57 35.5 79t85.5 22h69v307h-69q-49 0 -85 21.5t-36 78.5v154q0 211 -153.5 319.5t-493.5 108.5v-238q74 -8 121 -25.5t72.5 -47t35.5 -72.5t10 -100v-50q0 -90 17.5 -145t51.5 -86t81 -46.5t108 -25.5 q-61 -10 -108 -24.5t-81 -46t-51.5 -86t-17.5 -144.5v-49q0 -59 -10 -101t-35.5 -72t-72.5 -47.5t-121 -25.5z" />
<glyph unicode="~" horiz-adv-x="1191" d="M92 625l223 -99q25 49 42.5 78t30.5 44.5t24.5 20.5t27.5 5q20 0 50 -15.5t100 -56.5q29 -16 49 -28.5t39.5 -20.5t42 -12t53.5 -4q49 0 91 18t80 61t76 112t79 167l-223 98q-25 -49 -42.5 -78.5t-30.5 -45t-25.5 -19.5t-26.5 -4q-20 0 -50 15.5t-100 56.5 q-29 16 -49.5 28t-39.5 20.5t-41.5 12.5t-53.5 4q-49 0 -91 -18.5t-80 -61.5t-76 -111.5t-79 -166.5z" />
<glyph unicode="&#xa1;" horiz-adv-x="716" d="M145 1243q0 -92 60.5 -150.5t152.5 -58.5t152.5 58.5t60.5 150.5q0 45 -16 84t-44 67.5t-68 45t-85 16.5q-47 0 -86 -16.5t-66.5 -45t-44 -67.5t-16.5 -84zM156 0h405v512l-67 410h-271l-67 -410v-512z" />
<glyph unicode="&#xa2;" horiz-adv-x="1064" d="M72 731q0 -211 79.5 -345t227.5 -187v-222h356v213q78 25 142.5 81.5t130.5 152.5l-234 182q-51 -76 -92 -107.5t-94 -31.5q-152 0 -152 258q0 129 35 196.5t107 67.5q59 0 93 -33.5t72 -105.5l254 192q-51 82 -113.5 139.5t-148.5 86.5v188h-356v-201 q-156 -55 -231.5 -193t-75.5 -331z" />
<glyph unicode="&#xa3;" horiz-adv-x="1421" d="M166 0h1130v303h-684q37 45 65 100.5t42 126.5h295v277h-314q-12 31 -28.5 61.5t-34.5 61.5q-16 25 -23.5 46t-7.5 48q0 47 38 78t124 31q104 0 199.5 -29t193.5 -94l168 288q-123 80 -264 119t-293 39q-279 0 -417 -97t-138 -269q0 -57 17.5 -107.5t44.5 -95.5 q12 -23 22 -41.5t21 -38.5h-156v-277h188q-16 -102 -63 -168.5t-125 -121.5v-240z" />
<glyph unicode="&#xa4;" horiz-adv-x="1384" d="M84 717q0 -160 41 -295t121 -233.5t200.5 -155t280.5 -56.5q127 0 224.5 32t170 83t123.5 117.5t88 138.5l-315 162q-31 -53 -57.5 -92t-57.5 -64.5t-67.5 -39t-87.5 -13.5q-92 0 -150.5 44t-89.5 126h356v195h-389q-2 12 -2 24v27v41h391v194h-360q59 180 239 181 q53 0 91 -15.5t65 -44.5t47.5 -70.5t40.5 -93.5l322 125q-37 100 -83 179t-111.5 133.5t-160 82t-225.5 27.5q-145 0 -264 -51t-203 -146.5t-131 -232.5t-47 -309z" />
<glyph unicode="&#xa5;" horiz-adv-x="1486" d="M33 1434l520 -916v-29h-328v-296h328v-193h381v193h328v296h-328v35l520 910h-455l-102 -217q-53 -111 -92 -208.5t-60 -162.5q-20 63 -59 158.5t-92 212.5l-102 217h-459z" />
<glyph unicode="&#xa6;" horiz-adv-x="1691" d="M31 725l325 -281q47 -39 82 -14q20 14 24.5 33.5t-3.5 54.5l-17 74h271v-232l-74 17q-35 8 -54.5 4t-33.5 -25q-25 -35 14 -82l281 -325l280 325q39 47 15 82q-14 20 -34 24.5t-54 -3.5l-74 -17v232h270l-16 -74q-8 -35 -4 -54.5t24 -33.5q35 -25 82 14l326 281l-326 281 q-47 39 -82 14q-20 -14 -24 -33.5t4 -54.5l16 -74h-270v215l74 -16q35 -8 54 -4t34 24q25 35 -15 82l-280 326l-281 -326q-39 -47 -14 -82q14 -20 33.5 -24t54.5 4l74 16v-215h-271l17 74q8 35 4 54.5t-25 33.5q-35 25 -82 -14z" />
<glyph unicode="&#xa7;" horiz-adv-x="1478" d="M113 586q0 -92 22.5 -155.5t86 -115t173 -96.5t285.5 -102q57 -18 91 -33.5t51.5 -28t21.5 -24t4 -25.5q0 -20 -19.5 -32.5t-78.5 -12.5q-100 0 -198.5 29.5t-180.5 77.5l-121 -279q41 -27 96 -49.5t118.5 -39.5t132.5 -26.5t134 -9.5q119 0 205 27.5t142.5 75t84 113 t27.5 138.5q0 47 -7 88t-26 78q96 66 152.5 150t56.5 201q0 92 -22.5 155.5t-86 114.5t-174 96t-284.5 103q-59 18 -92 33.5t-50.5 27.5t-21.5 23.5t-4 25.5q0 20 19.5 32.5t78.5 12.5q100 0 198.5 -29.5t180.5 -76.5l121 278q-41 27 -96.5 49.5t-119 39t-132 26.5 t-133.5 10q-119 0 -205 -27.5t-142.5 -74.5t-84 -112.5t-27.5 -139.5q0 -47 7 -88t23 -78q-94 -66 -150 -149.5t-56 -200.5zM475 616q0 43 18.5 74t55.5 60q39 -18 85 -36t99 -34q86 -29 139.5 -49.5t83 -40t39 -40t9.5 -46.5q0 -43 -18.5 -74t-55.5 -59q-39 18 -85 35.5 t-100 33.5q-86 27 -139 48.5t-82.5 41t-39 39.5t-9.5 47z" />
<glyph unicode="&#xa8;" horiz-adv-x="1024" d="M86 1405q0 -35 15.5 -66.5t40 -56.5t57 -39t69.5 -14t70 14t57.5 39t40 56.5t15.5 66.5q0 37 -15.5 69.5t-40 57t-57.5 39t-70 14.5t-69.5 -14.5t-57 -39t-40 -57t-15.5 -69.5zM573 1405q0 -35 15.5 -66.5t40 -56.5t58.5 -39t71 -14q35 0 67.5 14t57 39t40 56.5 t15.5 66.5q0 37 -15.5 69.5t-40 57t-57 39t-67.5 14.5q-37 0 -71 -14.5t-58.5 -39t-40 -57t-15.5 -69.5z" />
<glyph unicode="&#xa9;" horiz-adv-x="1712" d="M117 717q0 -158 56 -293t155.5 -234.5t234.5 -156t293 -56.5t293 56.5t234.5 156t155.5 234.5t56 293t-56 293t-155.5 234t-234.5 155.5t-293 56.5t-293 -56.5t-234.5 -155.5t-155.5 -234t-56 -293zM268 717q0 133 45 242.5t123 187.5t185.5 121t234.5 43 q125 0 233.5 -43t186.5 -121t123 -187.5t45 -242.5t-45 -242.5t-123 -187.5t-186.5 -121t-233.5 -43q-127 0 -234.5 43t-185.5 121t-123 187.5t-45 242.5zM492 725q0 -90 23.5 -166t69.5 -131t114.5 -86t158.5 -31q72 0 125 17.5t93 47.5t67.5 66.5t48.5 75.5l-188 100 q-33 -57 -62 -84.5t-82 -27.5q-72 0 -103.5 63.5t-31.5 155.5q0 96 30.5 158.5t102.5 62.5q55 0 81 -32.5t48 -90.5l203 80q-20 57 -47 101.5t-66 74t-92 45t-127 15.5q-80 0 -147.5 -29t-116.5 -82t-75.5 -130t-26.5 -173z" />
<glyph unicode="&#xaa;" horiz-adv-x="1024" d="M111 848q0 -147 76.5 -223t205.5 -76q59 0 114.5 21.5t96.5 54.5v-60h283v568q0 152 -83 237.5t-267 85.5q-115 0 -205 -20.5t-170 -59.5l78 -198q66 35 121 49t120 14q61 0 92 -22.5t31 -79.5v-43q-35 16 -78 26.5t-102 10.5q-139 0 -226 -72t-87 -213zM385 854 q0 92 92 92q43 0 73 -7t54 -17v-121q-20 -16 -55 -29.5t-72 -13.5q-49 0 -70.5 27.5t-21.5 68.5z" />
<glyph unicode="&#xab;" horiz-adv-x="1421" d="M61 537l261 -537h399l-268 539l268 536h-399zM678 537l260 -537h399l-268 539l268 536h-399z" />
<glyph unicode="&#xac;" horiz-adv-x="1351" d="M92 561h735l-18 -94q-8 -41 -3 -63.5t28 -38.5q37 -27 94 16l393 344l-393 344q-57 43 -94 16q-23 -16 -28 -37.5t3 -64.5l18 -94h-735v-328z" />
<glyph unicode="&#xad;" horiz-adv-x="991" d="M139 541h713v385h-713v-385z" />
<glyph unicode="&#xae;" horiz-adv-x="1712" d="M117 717q0 -158 56 -293t155.5 -234.5t234.5 -156t293 -56.5t293 56.5t234.5 156t155.5 234.5t56 293t-56 293t-155.5 234t-234.5 155.5t-293 56.5t-293 -56.5t-234.5 -155.5t-155.5 -234t-56 -293zM268 717q0 133 45 242.5t123 187.5t185.5 121t234.5 43 q125 0 233.5 -43t186.5 -121t123 -187.5t45 -242.5t-45 -242.5t-123 -187.5t-186.5 -121t-233.5 -43q-127 0 -234.5 43t-185.5 121t-123 187.5t-45 242.5zM547 334h219v270h90l131 -270h248l-160 305q66 31 106 87t40 148q0 143 -86 203t-228 60h-360v-803zM766 780v174h135 q53 0 75.5 -23.5t22.5 -62.5q0 -43 -23.5 -65.5t-78.5 -22.5h-131z" />
<glyph unicode="&#xaf;" horiz-adv-x="1024" d="M178 1249h668v236h-668v-236z" />
<glyph unicode="&#x2c9;" horiz-adv-x="1024" d="M178 1249h668v236h-668v-236z" />
<glyph unicode="&#xb0;" horiz-adv-x="1077" d="M92 1012q0 -98 35 -180t95.5 -142.5t141 -93.5t175.5 -33q94 0 176 33t141 93.5t94 142t35 180.5q0 96 -35 177t-94 140.5t-141 93t-176 33.5t-175 -33.5t-141.5 -93t-95.5 -140.5t-35 -177zM354 1012q0 92 52.5 144t132.5 52q82 0 133 -52t51 -144q0 -96 -51 -148.5 t-133 -52.5q-80 0 -132.5 52.5t-52.5 148.5z" />
<glyph unicode="&#xb1;" horiz-adv-x="1691" d="M31 725l325 -281q47 -39 82 -14q20 14 24.5 33.5t-3.5 54.5l-17 74h271v-232l-74 17q-35 8 -54.5 4t-33.5 -25q-25 -35 14 -82l281 -325l280 325q39 47 15 82q-14 20 -34 24.5t-54 -3.5l-74 -17v232h270l-16 -74q-8 -35 -4 -54.5t24 -33.5q35 -25 82 14l326 281l-326 281 q-47 39 -82 14q-20 -14 -24 -33.5t4 -54.5l16 -74h-270v215l74 -16q35 -8 54 -4t34 24q25 35 -15 82l-280 326l-281 -326q-39 -47 -14 -82q14 -20 33.5 -24t54.5 4l74 16v-215h-271l17 74q8 35 4 54.5t-25 33.5q-35 25 -82 -14z" />
<glyph unicode="&#xb2;" horiz-adv-x="1691" d="M31 725l325 -281q47 -39 82 -14q20 14 24.5 33.5t-3.5 54.5l-17 74h271v-232l-74 17q-35 8 -54.5 4t-33.5 -25q-25 -35 14 -82l281 -325l280 325q39 47 15 82q-14 20 -34 24.5t-54 -3.5l-74 -17v232h270l-16 -74q-8 -35 -4 -54.5t24 -33.5q35 -25 82 14l326 281l-326 281 q-47 39 -82 14q-20 -14 -24 -33.5t4 -54.5l16 -74h-270v215l74 -16q35 -8 54 -4t34 24q25 35 -15 82l-280 326l-281 -326q-39 -47 -14 -82q14 -20 33.5 -24t54.5 4l74 16v-215h-271l17 74q8 35 4 54.5t-25 33.5q-35 25 -82 -14z" />
<glyph unicode="&#xb3;" horiz-adv-x="1691" d="M31 725l325 -281q47 -39 82 -14q20 14 24.5 33.5t-3.5 54.5l-17 74h271v-232l-74 17q-35 8 -54.5 4t-33.5 -25q-25 -35 14 -82l281 -325l280 325q39 47 15 82q-14 20 -34 24.5t-54 -3.5l-74 -17v232h270l-16 -74q-8 -35 -4 -54.5t24 -33.5q35 -25 82 14l326 281l-326 281 q-47 39 -82 14q-20 -14 -24 -33.5t4 -54.5l16 -74h-270v215l74 -16q35 -8 54 -4t34 24q25 35 -15 82l-280 326l-281 -326q-39 -47 -14 -82q14 -20 33.5 -24t54.5 4l74 16v-215h-271l17 74q8 35 4 54.5t-25 33.5q-35 25 -82 -14z" />
<glyph unicode="&#xb4;" horiz-adv-x="1024" d="M254 1219h262l322 327h-437z" />
<glyph unicode="&#xb5;" horiz-adv-x="1679" d="M31 725l393 -344q57 -43 94 -16q23 16 28 38.5t-3 63.5l-19 94h631l-18 -94q-8 -41 -3 -63.5t27 -38.5q37 -27 94 16l394 344l-394 344q-57 43 -94 16q-23 -16 -28 -37.5t4 -64.5l18 -94h-631l19 94q8 43 3 64.5t-28 37.5q-37 27 -94 -16z" />
<glyph unicode="&#x3bc;" horiz-adv-x="1679" d="M31 725l393 -344q57 -43 94 -16q23 16 28 38.5t-3 63.5l-19 94h631l-18 -94q-8 -41 -3 -63.5t27 -38.5q37 -27 94 16l394 344l-394 344q-57 43 -94 16q-23 -16 -28 -37.5t4 -64.5l18 -94h-631l19 94q8 43 3 64.5t-28 37.5q-37 27 -94 -16z" />
<glyph unicode="&#xb6;" horiz-adv-x="1482" d="M76 985q0 -109 37 -192.5t100 -141t148 -87t180 -29.5h90v-914h284v1573h121v-1573h285v1813h-780q-94 0 -178 -30t-147.5 -87t-101.5 -141.5t-38 -190.5z" />
<glyph unicode="&#xb7;" horiz-adv-x="643" d="M86 752q0 -102 66.5 -169t169.5 -67q102 0 168.5 66.5t66.5 169.5q0 102 -66.5 166.5t-168.5 64.5t-169 -64.5t-67 -166.5z" />
<glyph unicode="&#x22c5;" horiz-adv-x="643" d="M86 752q0 -102 66.5 -169t169.5 -67q102 0 168.5 66.5t66.5 169.5q0 102 -66.5 166.5t-168.5 64.5t-169 -64.5t-67 -166.5z" />
<glyph unicode="&#xb8;" horiz-adv-x="1024" d="M229 -322q63 -31 138 -52t163 -21q111 0 169.5 47t58.5 131q0 68 -41 108.5t-119 40.5q-25 0 -47.5 -5t-38.5 -13l25 86h-125l-41 -150l78 -53q18 12 35.5 20.5t39.5 8.5q45 0 45 -47q0 -29 -25.5 -42t-68.5 -13q-45 0 -97 11t-110 38z" />
<glyph unicode="&#xb9;" horiz-adv-x="1691" d="M31 725l325 -281q47 -39 82 -14q20 14 24.5 33.5t-3.5 54.5l-17 74h271v-232l-74 17q-35 8 -54.5 4t-33.5 -25q-25 -35 14 -82l281 -325l280 325q39 47 15 82q-14 20 -34 24.5t-54 -3.5l-74 -17v232h270l-16 -74q-8 -35 -4 -54.5t24 -33.5q35 -25 82 14l326 281l-326 281 q-47 39 -82 14q-20 -14 -24 -33.5t4 -54.5l16 -74h-270v215l74 -16q35 -8 54 -4t34 24q25 35 -15 82l-280 326l-281 -326q-39 -47 -14 -82q14 -20 33.5 -24t54.5 4l74 16v-215h-271l17 74q8 35 4 54.5t-25 33.5q-35 25 -82 -14z" />
<glyph unicode="&#xba;" horiz-adv-x="1028" d="M100 1004q0 -113 31 -198t86 -142.5t131 -86t166 -28.5t166 28.5t131 86t86 142.5t31 198t-31 197.5t-86 142t-131 85t-166 27.5t-166 -27.5t-131 -85t-86 -142t-31 -197.5zM395 1004q0 111 30 160.5t89 49.5t89 -50t30 -160q0 -213 -119 -213t-119 213z" />
<glyph unicode="&#xbb;" horiz-adv-x="1421" d="M84 0h399l260 539l-260 536h-399l268 -538zM700 0h400l260 539l-260 536h-400l269 -538z" />
<glyph unicode="&#xbc;" horiz-adv-x="1691" d="M31 725l325 -281q47 -39 82 -14q20 14 24.5 33.5t-3.5 54.5l-17 74h271v-232l-74 17q-35 8 -54.5 4t-33.5 -25q-25 -35 14 -82l281 -325l280 325q39 47 15 82q-14 20 -34 24.5t-54 -3.5l-74 -17v232h270l-16 -74q-8 -35 -4 -54.5t24 -33.5q35 -25 82 14l326 281l-326 281 q-47 39 -82 14q-20 -14 -24 -33.5t4 -54.5l16 -74h-270v215l74 -16q35 -8 54 -4t34 24q25 35 -15 82l-280 326l-281 -326q-39 -47 -14 -82q14 -20 33.5 -24t54.5 4l74 16v-215h-271l17 74q8 35 4 54.5t-25 33.5q-35 25 -82 -14z" />
<glyph unicode="&#xbd;" horiz-adv-x="1691" d="M31 725l325 -281q47 -39 82 -14q20 14 24.5 33.5t-3.5 54.5l-17 74h271v-232l-74 17q-35 8 -54.5 4t-33.5 -25q-25 -35 14 -82l281 -325l280 325q39 47 15 82q-14 20 -34 24.5t-54 -3.5l-74 -17v232h270l-16 -74q-8 -35 -4 -54.5t24 -33.5q35 -25 82 14l326 281l-326 281 q-47 39 -82 14q-20 -14 -24 -33.5t4 -54.5l16 -74h-270v215l74 -16q35 -8 54 -4t34 24q25 35 -15 82l-280 326l-281 -326q-39 -47 -14 -82q14 -20 33.5 -24t54.5 4l74 16v-215h-271l17 74q8 35 4 54.5t-25 33.5q-35 25 -82 -14z" />
<glyph unicode="&#xbe;" horiz-adv-x="1691" d="M31 725l325 -281q47 -39 82 -14q20 14 24.5 33.5t-3.5 54.5l-17 74h271v-232l-74 17q-35 8 -54.5 4t-33.5 -25q-25 -35 14 -82l281 -325l280 325q39 47 15 82q-14 20 -34 24.5t-54 -3.5l-74 -17v232h270l-16 -74q-8 -35 -4 -54.5t24 -33.5q35 -25 82 14l326 281l-326 281 q-47 39 -82 14q-20 -14 -24 -33.5t4 -54.5l16 -74h-270v215l74 -16q35 -8 54 -4t34 24q25 35 -15 82l-280 326l-281 -326q-39 -47 -14 -82q14 -20 33.5 -24t54.5 4l74 16v-215h-271l17 74q8 35 4 54.5t-25 33.5q-35 25 -82 -14z" />
<glyph unicode="&#xbf;" horiz-adv-x="1232" d="M63 371q0 -98 38 -172t109 -123t171 -74t225 -25q172 0 313.5 47.5t270.5 129.5l-182 292q-90 -59 -187.5 -97t-208.5 -38q-84 0 -121.5 25.5t-37.5 73.5q0 43 30.5 69.5t96.5 57.5q78 37 129 76.5t81.5 87t43 101.5t12.5 120h-367q0 -74 -36.5 -122t-125.5 -91 q-66 -33 -113.5 -67t-78.5 -74t-46.5 -88t-15.5 -109zM453 1243q0 -92 60 -150.5t153 -58.5q92 0 152.5 58.5t60.5 150.5q0 45 -16.5 84t-44 67.5t-67.5 45t-85 16.5q-47 0 -86 -16.5t-67 -45t-44 -67.5t-16 -84z" />
<glyph unicode="&#xc0;" horiz-adv-x="1560" d="M59 0h426l78 252h430l78 -252h430l-520 1434h-401zM346 1853l322 -327h262l-148 327h-436zM659 567l27 95q18 68 32.5 118.5t26 91.5t19.5 76t14 72q6 -37 14.5 -71t19.5 -74.5t25.5 -92t32.5 -120.5l27 -95h-238z" />
<glyph unicode="&#xc1;" horiz-adv-x="1560" d="M59 0h426l78 252h430l78 -252h430l-520 1434h-401zM629 1526h262l321 327h-436zM659 567l27 95q18 68 32.5 118.5t26 91.5t19.5 76t14 72q6 -37 14.5 -71t19.5 -74.5t25.5 -92t32.5 -120.5l27 -95h-238z" />
<glyph unicode="&#xc2;" horiz-adv-x="1560" d="M59 0h426l78 252h430l78 -252h430l-520 1434h-401zM367 1563h241l170 131l170 -131h246l-268 327h-291zM659 567l27 95q18 68 32.5 118.5t26 91.5t19.5 76t14 72q6 -37 14.5 -71t19.5 -74.5t25.5 -92t32.5 -120.5l27 -95h-238z" />
<glyph unicode="&#xc3;" horiz-adv-x="1560" d="M59 0h426l78 252h430l78 -252h430l-520 1434h-401zM350 1526h211q8 53 24.5 78.5t51.5 25.5q23 0 51.5 -16.5t73.5 -42.5q47 -29 86 -40t96 -11q61 0 111.5 24.5t85.5 67.5t53 102.5t18 126.5h-211q-12 -104 -75 -104q-23 0 -51.5 16t-73.5 43q-47 29 -86 40t-97 11 q-61 0 -111 -24.5t-85 -67.5t-53.5 -102t-18.5 -127zM659 567l27 95q18 68 32.5 118.5t26 91.5t19.5 76t14 72q6 -37 14.5 -71t19.5 -74.5t25.5 -92t32.5 -120.5l27 -95h-238z" />
<glyph unicode="&#xc4;" horiz-adv-x="1560" d="M59 0h426l78 252h430l78 -252h430l-520 1434h-401zM356 1712q0 -35 15.5 -66.5t40 -56t57.5 -39t70 -14.5t69.5 14.5t57 39t40 56t15.5 66.5q0 37 -15.5 70t-40 57.5t-57.5 38.5t-69 14q-37 0 -70 -14t-57.5 -38.5t-40 -57.5t-15.5 -70zM659 567l27 95q18 68 32.5 118.5 t26 91.5t19.5 76t14 72q6 -37 14.5 -71t19.5 -74.5t25.5 -92t32.5 -120.5l27 -95h-238zM844 1712q0 -35 15 -66.5t40 -56t58.5 -39t70.5 -14.5q35 0 67.5 14.5t57.5 39t40 56t15 66.5q0 37 -15 70t-40 57.5t-57.5 38.5t-67.5 14q-37 0 -70.5 -14t-58.5 -38.5t-40 -57.5 t-15 -70z" />
<glyph unicode="&#xc5;" horiz-adv-x="1560" d="M59 0h426l78 252h430l78 -252h430l-487 1346q57 74 57 172q0 61 -22.5 112t-62.5 90t-92 60.5t-114 21.5q-61 0 -113.5 -21.5t-92 -60.5t-62.5 -90t-23 -112q0 -49 15.5 -93.5t42.5 -78.5zM659 567l27 95q18 68 32.5 118.5t26 91.5t19.5 76t14 72q6 -37 14.5 -71 t19.5 -74.5t25.5 -92t32.5 -120.5l27 -95h-238zM668 1518q0 55 29.5 88.5t82.5 33.5t83 -33.5t30 -88.5t-29.5 -88t-83.5 -33q-53 0 -82.5 33t-29.5 88z" />
<glyph unicode="&#xc6;" horiz-adv-x="2193" d="M29 0h428l96 156h496v-156h1036v334h-678v246h383v329h-383v191h664v334h-1080zM739 455l140 233q45 74 94 162t80 158q0 -23 -1 -63t-1 -87q0 -45 -1 -91t-1 -77v-235h-310z" />
<glyph unicode="&#xc7;" horiz-adv-x="1404" d="M86 717q0 -147 36 -274.5t106.5 -223.5t175 -157.5t241.5 -77.5l-37 -134l78 -53q18 12 35.5 20.5t40.5 8.5q45 0 45 -47q0 -29 -25.5 -42t-68.5 -13q-45 0 -97.5 11t-109.5 38l-39 -95q63 -31 138 -52t163 -21q111 0 169 47t58 131q0 68 -41 108.5t-118 40.5 q-25 0 -47.5 -5t-38.5 -13l18 63q119 4 210 37t158.5 84.5t115.5 117t83 132.5l-336 178q-29 -51 -55 -89t-55 -63.5t-63.5 -37.5t-82.5 -12q-66 0 -110.5 30.5t-74.5 84t-43 125t-13 153.5q0 86 13 157.5t43 124t75 82t106 29.5q49 0 84 -15.5t61.5 -43t47 -68.5t39.5 -90 l360 141q-37 100 -84 179t-115.5 133.5t-164 82t-226.5 27.5q-145 0 -265 -51t-207 -146.5t-135 -232.5t-48 -309z" />
<glyph unicode="&#xc8;" horiz-adv-x="1366" d="M145 0h1112v334h-718v246h424v329h-424v191h704v334h-1098v-1434zM274 1853l322 -327h262l-147 327h-437z" />
<glyph unicode="&#xc9;" horiz-adv-x="1366" d="M145 0h1112v334h-718v246h424v329h-424v191h704v334h-1098v-1434zM520 1526h262l322 327h-436z" />
<glyph unicode="&#xca;" horiz-adv-x="1366" d="M145 0h1112v334h-718v246h424v329h-424v191h704v334h-1098v-1434zM287 1526h241l170 131l170 -131h246l-268 327h-291z" />
<glyph unicode="&#xcb;" horiz-adv-x="1366" d="M145 0h1112v334h-718v246h424v329h-424v191h704v334h-1098v-1434zM272 1712q0 -35 15.5 -66.5t40 -56t57.5 -39t70 -14.5t69.5 14.5t57 39t40 56t15.5 66.5q0 37 -15.5 70t-40 57.5t-57 38.5t-69.5 14t-70 -14t-57.5 -38.5t-40 -57.5t-15.5 -70zM760 1712 q0 -35 15.5 -66.5t40 -56t58 -39t70.5 -14.5q35 0 67.5 14.5t57.5 39t40 56t15 66.5q0 37 -15 70t-40 57.5t-57.5 38.5t-67.5 14q-37 0 -70.5 -14t-58 -38.5t-40 -57.5t-15.5 -70z" />
<glyph unicode="&#xcc;" horiz-adv-x="716" d="M-76 1853l322 -327h262l-148 327h-436zM156 0h405v1434h-405v-1434z" />
<glyph unicode="&#xcd;" horiz-adv-x="716" d="M156 0h405v1434h-405v-1434zM217 1526h262l322 327h-436z" />
<glyph unicode="&#xce;" horiz-adv-x="716" d="M-55 1495h241l170 131l170 -131h246l-268 328h-291zM156 0h405v1434h-405v-1434z" />
<glyph unicode="&#xcf;" horiz-adv-x="716" d="M-68 1686q0 -35 15.5 -67t40 -56.5t57.5 -39t70 -14.5t69.5 14.5t57 39t40 56.5t15.5 67q0 37 -15.5 69.5t-40 57t-57 39t-69.5 14.5t-70 -14.5t-57.5 -39t-40 -57t-15.5 -69.5zM156 0h405v1434h-405v-1434zM420 1686q0 -35 15.5 -67t40 -56.5t58 -39t70.5 -14.5 q35 0 68 14.5t57.5 39t39.5 56.5t15 67q0 37 -15 69.5t-39.5 57t-57.5 39t-68 14.5q-37 0 -70.5 -14.5t-58 -39t-40 -57t-15.5 -69.5z" />
<glyph unicode="&#xd0;" horiz-adv-x="1519" d="M61 584h125v-584h465q190 0 334.5 38t243 123t147.5 223t49 341t-52 338t-147.5 218t-232.5 118t-305 35h-502v-543h-125v-307zM567 340v244h181v307h-181v203h119q92 0 155.5 -21.5t102.5 -66.5t56.5 -117t17.5 -170q0 -106 -18.5 -179t-60.5 -117t-107.5 -63.5 t-157.5 -19.5h-107z" />
<glyph unicode="&#xd1;" horiz-adv-x="1548" d="M145 0h381v438v99q0 55 -2 107t-4 96t-6 69q14 -25 42 -68t59.5 -91t64.5 -96t57 -81l342 -473h324v1434h-381v-392v-98q0 -55 2 -107.5t4 -96.5t6 -68q-12 23 -38.5 65.5t-59.5 92t-66.5 98.5t-58.5 82l-315 424h-351v-1434zM350 1520h211q8 53 24.5 78.5t51.5 25.5 q23 0 51.5 -16.5t73.5 -42.5q47 -29 86 -40.5t96 -11.5q61 0 111.5 25t85.5 68t53 102t18 127h-211q-12 -104 -75 -104q-23 0 -51.5 16t-73.5 43q-47 29 -86 40t-97 11q-61 0 -111 -24.5t-85 -67.5t-53.5 -102t-18.5 -127z" />
<glyph unicode="&#xd2;" horiz-adv-x="1499" d="M86 715q0 -178 48 -316.5t136 -231.5t210 -141.5t268 -48.5q145 0 268 49.5t211 143.5t137 232.5t49 316.5t-49 316.5t-136 231.5t-209 141t-267 48t-268.5 -49t-211.5 -143.5t-137 -232.5t-49 -316zM301 1853l322 -327h262l-148 327h-436zM498 719q0 195 64.5 293 t185.5 98t187 -100.5t66 -294.5q0 -195 -64.5 -293t-184.5 -98q-121 0 -187.5 100t-66.5 295z" />
<glyph unicode="&#xd3;" horiz-adv-x="1499" d="M86 715q0 -178 48 -316.5t136 -231.5t210 -141.5t268 -48.5q145 0 268 49.5t211 143.5t137 232.5t49 316.5t-49 316.5t-136 231.5t-209 141t-267 48t-268.5 -49t-211.5 -143.5t-137 -232.5t-49 -316zM498 719q0 195 64.5 293t185.5 98t187 -100.5t66 -294.5 q0 -195 -64.5 -293t-184.5 -98q-121 0 -187.5 100t-66.5 295zM594 1526h262l322 327h-437z" />
<glyph unicode="&#xd4;" horiz-adv-x="1499" d="M86 715q0 -178 48 -316.5t136 -231.5t210 -141.5t268 -48.5q145 0 268 49.5t211 143.5t137 232.5t49 316.5t-49 316.5t-136 231.5t-209 141t-267 48t-268.5 -49t-211.5 -143.5t-137 -232.5t-49 -316zM336 1516h242l170 131l170 -131h245l-268 327h-291zM498 719 q0 195 64.5 293t185.5 98t187 -100.5t66 -294.5q0 -195 -64.5 -293t-184.5 -98q-121 0 -187.5 100t-66.5 295z" />
<glyph unicode="&#xd5;" horiz-adv-x="1499" d="M86 715q0 -178 48 -316.5t136 -231.5t210 -141.5t268 -48.5q145 0 268 49.5t211 143.5t137 232.5t49 316.5t-49 316.5t-136 231.5t-209 141t-267 48t-268.5 -49t-211.5 -143.5t-137 -232.5t-49 -316zM307 1526h211q8 53 24.5 78.5t51.5 25.5q23 0 51.5 -16.5t73.5 -42.5 q47 -29 86 -40t96 -11q61 0 111.5 24.5t85.5 67.5t53 102.5t18 126.5h-211q-12 -104 -75 -104q-23 0 -51.5 16t-73.5 43q-47 29 -86 40t-97 11q-61 0 -111 -24.5t-85 -67.5t-53.5 -102t-18.5 -127zM498 719q0 195 64.5 293t185.5 98t187 -100.5t66 -294.5q0 -195 -64.5 -293 t-184.5 -98q-121 0 -187.5 100t-66.5 295z" />
<glyph unicode="&#xd6;" horiz-adv-x="1499" d="M86 715q0 -178 48 -316.5t136 -231.5t210 -141.5t268 -48.5q145 0 268 49.5t211 143.5t137 232.5t49 316.5t-49 316.5t-136 231.5t-209 141t-267 48t-268.5 -49t-211.5 -143.5t-137 -232.5t-49 -316zM324 1712q0 -35 15 -66.5t39.5 -56t57.5 -39t70 -14.5t69.5 14.5 t57 39t40 56t15.5 66.5q0 37 -15.5 70t-40 57.5t-57 38.5t-69.5 14t-70 -14t-57.5 -38.5t-39.5 -57.5t-15 -70zM498 719q0 195 64.5 293t185.5 98t187 -100.5t66 -294.5q0 -195 -64.5 -293t-184.5 -98q-121 0 -187.5 100t-66.5 295zM811 1712q0 -35 15.5 -66.5t40 -56 t58 -39t70.5 -14.5q35 0 68 14.5t57.5 39t40 56t15.5 66.5q0 37 -15.5 70t-40 57.5t-57.5 38.5t-68 14q-37 0 -70.5 -14t-58 -38.5t-40 -57.5t-15.5 -70z" />
<glyph unicode="&#xd7;" horiz-adv-x="1691" d="M31 725l325 -281q47 -39 82 -14q20 14 24.5 33.5t-3.5 54.5l-17 74h271v-232l-74 17q-35 8 -54.5 4t-33.5 -25q-25 -35 14 -82l281 -325l280 325q39 47 15 82q-14 20 -34 24.5t-54 -3.5l-74 -17v232h270l-16 -74q-8 -35 -4 -54.5t24 -33.5q35 -25 82 14l326 281l-326 281 q-47 39 -82 14q-20 -14 -24 -33.5t4 -54.5l16 -74h-270v215l74 -16q35 -8 54 -4t34 24q25 35 -15 82l-280 326l-281 -326q-39 -47 -14 -82q14 -20 33.5 -24t54.5 4l74 16v-215h-271l17 74q8 35 4 54.5t-25 33.5q-35 25 -82 -14z" />
<glyph unicode="&#xd8;" horiz-adv-x="1499" d="M49 -102h426l64 108q102 -29 209 -29q145 0 268 49.5t211 143.5t137 232.5t49 316.5q0 162 -40 290t-111 220l182 307h-426l-64 -106q-92 27 -202 26q-145 0 -268.5 -49t-211.5 -143.5t-137 -232.5t-49 -316q0 -160 38 -286t109 -218zM498 719q0 195 64.5 293t185.5 98 t187 -100.5t66 -294.5q0 -195 -64.5 -293t-184.5 -98q-121 0 -187.5 100t-66.5 295z" />
<glyph unicode="&#xd9;" horiz-adv-x="1531" d="M137 612q0 -170 47 -290.5t130 -197.5t198 -112t250 -35t250.5 35t200.5 112t133.5 197.5t48.5 290.5v822h-406v-822q0 -133 -52 -208.5t-169 -75.5t-171 75.5t-54 208.5v822h-406v-822zM334 1823l321 -328h263l-148 328h-436z" />
<glyph unicode="&#xda;" horiz-adv-x="1531" d="M137 612q0 -170 47 -290.5t130 -197.5t198 -112t250 -35t250.5 35t200.5 112t133.5 197.5t48.5 290.5v822h-406v-822q0 -133 -52 -208.5t-169 -75.5t-171 75.5t-54 208.5v822h-406v-822zM616 1495h263l321 328h-436z" />
<glyph unicode="&#xdb;" horiz-adv-x="1531" d="M137 612q0 -170 47 -290.5t130 -197.5t198 -112t250 -35t250.5 35t200.5 112t133.5 197.5t48.5 290.5v822h-406v-822q0 -133 -52 -208.5t-169 -75.5t-171 75.5t-54 208.5v822h-406v-822zM352 1526h242l170 131l170 -131h246l-269 327h-290z" />
<glyph unicode="&#xdc;" horiz-adv-x="1531" d="M137 612q0 -170 47 -290.5t130 -197.5t198 -112t250 -35t250.5 35t200.5 112t133.5 197.5t48.5 290.5v822h-406v-822q0 -133 -52 -208.5t-169 -75.5t-171 75.5t-54 208.5v822h-406v-822zM340 1712q0 -35 15.5 -66.5t40 -56t57 -39t69.5 -14.5t70 14.5t57.5 39t40 56 t15.5 66.5q0 37 -15.5 70t-40 57.5t-57.5 38.5t-70 14t-69.5 -14t-57 -38.5t-40 -57.5t-15.5 -70zM827 1712q0 -35 15.5 -66.5t40 -56t58.5 -39t71 -14.5q35 0 67.5 14.5t57 39t40 56t15.5 66.5q0 37 -15.5 70t-40 57.5t-57 38.5t-67.5 14q-37 0 -71 -14t-58.5 -38.5 t-40 -57.5t-15.5 -70z" />
<glyph unicode="&#xdd;" horiz-adv-x="1527" d="M33 1434l530 -906v-528h402v535l530 899h-455l-110 -217q-57 -113 -100.5 -210.5t-63.5 -160.5q-20 63 -63.5 160.5t-100.5 210.5l-110 217h-459zM627 1522h262l321 327h-436z" />
<glyph unicode="&#xde;" horiz-adv-x="1390" d="M145 0h392v252h198q129 0 236.5 25.5t185.5 84t121 152.5t43 231q0 129 -40 220.5t-113.5 147.5t-177 82t-228.5 26h-225v213h-392v-1434zM537 575v322h215q96 0 135 -43t39 -115q0 -82 -41 -123t-140 -41h-208z" />
<glyph unicode="&#xdf;" horiz-adv-x="1230" d="M115 -395l368 147v1264q0 88 23.5 130t83.5 42q59 0 85.5 -34t26.5 -107q0 -53 -21.5 -82t-74.5 -29h-12v-279h12q92 0 141.5 -41t49.5 -143q0 -184 -172 -184h-31v-289h31q266 0 400 121t134 358q0 82 -24.5 141.5t-64.5 101.5t-91 65.5t-102 35.5q35 18 65.5 43 t54 58.5t38 78t14.5 105.5q0 98 -36 170t-97.5 118t-145.5 68.5t-180 22.5q-109 0 -196 -28.5t-149.5 -87t-96 -150t-33.5 -215.5v-1401z" />
<glyph unicode="&#xe0;" horiz-adv-x="1142" d="M78 348q0 -182 95 -276.5t253 -94.5q74 0 141.5 27t120.5 68v-72h348v698q0 186 -103.5 293t-328.5 107q-141 0 -252.5 -25.5t-210.5 -73.5l97 -243q78 43 146.5 60.5t152.5 17.5q76 0 113.5 -28t37.5 -99v-54q-45 20 -97 32.5t-126 12.5q-86 0 -156.5 -22.5t-122 -66.5 t-80 -109.5t-28.5 -151.5zM188 1546l322 -327h262l-147 327h-437zM416 354q0 115 114 115q53 0 90 -8t68 -23v-147q-27 -23 -68.5 -38t-89.5 -15q-59 0 -86.5 32.5t-27.5 83.5z" />
<glyph unicode="&#xe1;" horiz-adv-x="1142" d="M78 348q0 -182 95 -276.5t253 -94.5q74 0 141.5 27t120.5 68v-72h348v698q0 186 -103.5 293t-328.5 107q-141 0 -252.5 -25.5t-210.5 -73.5l97 -243q78 43 146.5 60.5t152.5 17.5q76 0 113.5 -28t37.5 -99v-54q-45 20 -97 32.5t-126 12.5q-86 0 -156.5 -22.5t-122 -66.5 t-80 -109.5t-28.5 -151.5zM389 1219h262l322 327h-436zM416 354q0 115 114 115q53 0 90 -8t68 -23v-147q-27 -23 -68.5 -38t-89.5 -15q-59 0 -86.5 32.5t-27.5 83.5z" />
<glyph unicode="&#xe2;" horiz-adv-x="1142" d="M78 348q0 -182 95 -276.5t253 -94.5q74 0 141.5 27t120.5 68v-72h348v698q0 186 -103.5 293t-328.5 107q-141 0 -252.5 -25.5t-210.5 -73.5l97 -243q78 43 146.5 60.5t152.5 17.5q76 0 113.5 -28t37.5 -99v-54q-45 20 -97 32.5t-126 12.5q-86 0 -156.5 -22.5t-122 -66.5 t-80 -109.5t-28.5 -151.5zM160 1208h241l170 131l170 -131h246l-268 328h-291zM416 354q0 115 114 115q53 0 90 -8t68 -23v-147q-27 -23 -68.5 -38t-89.5 -15q-59 0 -86.5 32.5t-27.5 83.5z" />
<glyph unicode="&#xe3;" horiz-adv-x="1142" d="M78 348q0 -182 95 -276.5t253 -94.5q74 0 141.5 27t120.5 68v-72h348v698q0 186 -103.5 293t-328.5 107q-141 0 -252.5 -25.5t-210.5 -73.5l97 -243q78 43 146.5 60.5t152.5 17.5q76 0 113.5 -28t37.5 -99v-54q-45 20 -97 32.5t-126 12.5q-86 0 -156.5 -22.5t-122 -66.5 t-80 -109.5t-28.5 -151.5zM150 1219h210q8 53 24.5 78.5t51.5 25.5q23 0 51.5 -16.5t73.5 -42.5q47 -29 86 -40.5t96 -11.5q61 0 111.5 25t85.5 68t53.5 102t18.5 127h-211q-12 -104 -76 -104q-23 0 -51.5 16t-73.5 43q-47 29 -86 40t-96 11q-61 0 -111.5 -24.5t-85.5 -67.5 t-53 -102t-18 -127zM416 354q0 115 114 115q53 0 90 -8t68 -23v-147q-27 -23 -68.5 -38t-89.5 -15q-59 0 -86.5 32.5t-27.5 83.5z" />
<glyph unicode="&#xe4;" horiz-adv-x="1142" d="M78 348q0 -182 95 -276.5t253 -94.5q74 0 141.5 27t120.5 68v-72h348v698q0 186 -103.5 293t-328.5 107q-141 0 -252.5 -25.5t-210.5 -73.5l97 -243q78 43 146.5 60.5t152.5 17.5q76 0 113.5 -28t37.5 -99v-54q-45 20 -97 32.5t-126 12.5q-86 0 -156.5 -22.5t-122 -66.5 t-80 -109.5t-28.5 -151.5zM143 1395q0 -35 15.5 -67t40 -56.5t57.5 -38.5t70 -14t69.5 14t57 38.5t40 56.5t15.5 67q0 37 -15.5 69.5t-40 57t-57.5 39t-69 14.5q-37 0 -70 -14.5t-57.5 -39t-40 -57t-15.5 -69.5zM416 354q0 115 114 115q53 0 90 -8t68 -23v-147 q-27 -23 -68.5 -38t-89.5 -15q-59 0 -86.5 32.5t-27.5 83.5zM631 1395q0 -35 15.5 -67t40 -56.5t58 -38.5t70.5 -14q35 0 67.5 14t57.5 38.5t40 56.5t15 67q0 37 -15 69.5t-40 57t-57.5 39t-67.5 14.5q-37 0 -70.5 -14.5t-58 -39t-40 -57t-15.5 -69.5z" />
<glyph unicode="&#xe5;" horiz-adv-x="1142" d="M78 348q0 -182 95 -276.5t253 -94.5q74 0 141.5 27t120.5 68v-72h348v698q0 186 -103.5 293t-328.5 107q-141 0 -252.5 -25.5t-210.5 -73.5l97 -243q78 43 146.5 60.5t152.5 17.5q76 0 113.5 -28t37.5 -99v-54q-45 20 -97 32.5t-126 12.5q-86 0 -156.5 -22.5t-122 -66.5 t-80 -109.5t-28.5 -151.5zM285 1501q0 -61 22.5 -112.5t62.5 -89t92 -59t113 -21.5t113.5 21.5t92.5 59t62.5 89t22.5 112.5t-22.5 112.5t-62.5 90.5t-92 60.5t-114 21.5q-61 0 -113 -21.5t-92 -60.5t-62.5 -90.5t-22.5 -112.5zM416 354q0 115 114 115q53 0 90 -8t68 -23 v-147q-27 -23 -68.5 -38t-89.5 -15q-59 0 -86.5 32.5t-27.5 83.5zM463 1501q0 55 29.5 89t82.5 34t83 -34t30 -89t-29.5 -88t-83.5 -33q-53 0 -82.5 33t-29.5 88z" />
<glyph unicode="&#xe6;" horiz-adv-x="1734" d="M78 348q0 -182 95 -276.5t294 -94.5q129 0 227.5 41t167.5 113q47 -66 127 -110t205 -44q127 0 232.5 32t205.5 91l-141 236q-80 -41 -143.5 -58.5t-135.5 -17.5q-76 0 -124 41t-58 131h631q2 14 2 31v41q0 150 -34 261.5t-95 185t-147.5 110.5t-192.5 37 q-102 0 -176 -34t-125 -97q-41 63 -111.5 97t-187.5 34q-131 0 -242.5 -25.5t-210.5 -73.5l97 -243q78 43 146.5 60.5t152.5 17.5q76 0 113.5 -28t37.5 -99v-54q-45 20 -97 32.5t-126 12.5q-86 0 -156.5 -22.5t-122 -66.5t-80 -109.5t-28.5 -151.5zM416 354q0 115 114 115 q53 0 90 -8t68 -23v-147q-27 -23 -68.5 -38t-89.5 -15q-59 0 -86.5 32.5t-27.5 83.5zM1030 662q18 164 144 163q82 0 115.5 -41t47.5 -122h-307z" />
<glyph unicode="&#xe7;" horiz-adv-x="1064" d="M72 541q0 -242 103.5 -382.5t291.5 -172.5l-37 -136l78 -53q18 12 35.5 20.5t40.5 8.5q45 0 45 -47q0 -29 -25.5 -42t-68.5 -13q-45 0 -97.5 11t-109.5 38l-39 -95q63 -31 138 -52t163 -21q111 0 169 47t58 131q0 68 -41 108.5t-119 40.5q-25 0 -47 -5t-39 -13l19 63 q137 2 232.5 61.5t185.5 194.5l-234 183q-51 -76 -92 -108t-94 -32q-152 0 -152 259q0 129 35 196.5t107 67.5q59 0 93 -34t72 -106l254 193q-35 57 -75.5 102t-90 77t-111 49.5t-136.5 17.5q-129 0 -225.5 -41t-160 -115t-95 -176t-31.5 -225z" />
<glyph unicode="&#xe8;" horiz-adv-x="1114" d="M72 537q0 -123 32.5 -226.5t96 -177.5t158 -115t214.5 -41q127 0 232.5 32t206.5 91l-142 236q-80 -41 -143 -58.5t-135 -17.5q-76 0 -124 41t-58 131h630q2 14 2 31v41q0 299 -129 446.5t-350 147.5q-106 0 -196.5 -36t-156 -106.5t-102 -175t-36.5 -243.5zM137 1546 l322 -327h262l-148 327h-436zM410 662q18 164 143 163q82 0 115.5 -41t48.5 -122h-307z" />
<glyph unicode="&#xe9;" horiz-adv-x="1114" d="M72 537q0 -123 32.5 -226.5t96 -177.5t158 -115t214.5 -41q127 0 232.5 32t206.5 91l-142 236q-80 -41 -143 -58.5t-135 -17.5q-76 0 -124 41t-58 131h630q2 14 2 31v41q0 299 -129 446.5t-350 147.5q-106 0 -196.5 -36t-156 -106.5t-102 -175t-36.5 -243.5zM410 662 q18 164 143 163q82 0 115.5 -41t48.5 -122h-307zM410 1219h262l321 327h-436z" />
<glyph unicode="&#xea;" horiz-adv-x="1114" d="M72 537q0 -123 32.5 -226.5t96 -177.5t158 -115t214.5 -41q127 0 232.5 32t206.5 91l-142 236q-80 -41 -143 -58.5t-135 -17.5q-76 0 -124 41t-58 131h630q2 14 2 31v41q0 299 -129 446.5t-350 147.5q-106 0 -196.5 -36t-156 -106.5t-102 -175t-36.5 -243.5zM152 1198 h241l170 131l170 -131h246l-268 328h-291zM410 662q18 164 143 163q82 0 115.5 -41t48.5 -122h-307z" />
<glyph unicode="&#xeb;" horiz-adv-x="1114" d="M72 537q0 -123 32.5 -226.5t96 -177.5t158 -115t214.5 -41q127 0 232.5 32t206.5 91l-142 236q-80 -41 -143 -58.5t-135 -17.5q-76 0 -124 41t-58 131h630q2 14 2 31v41q0 299 -129 446.5t-350 147.5q-106 0 -196.5 -36t-156 -106.5t-102 -175t-36.5 -243.5zM141 1395 q0 -35 15.5 -67t40 -56.5t57.5 -38.5t70 -14t69.5 14t57 38.5t40 56.5t15.5 67q0 37 -15.5 69.5t-40 57t-57.5 39t-69 14.5q-37 0 -70 -14.5t-57.5 -39t-40 -57t-15.5 -69.5zM410 662q18 164 143 163q82 0 115.5 -41t48.5 -122h-307zM629 1395q0 -35 15 -67t40 -56.5 t58.5 -38.5t70.5 -14q35 0 67.5 14t57.5 38.5t40 56.5t15 67q0 37 -15 69.5t-40 57t-57.5 39t-67.5 14.5q-37 0 -70.5 -14.5t-58.5 -39t-40 -57t-15 -69.5z" />
<glyph unicode="&#xec;" horiz-adv-x="618" d="M-106 1546l321 -327h262l-147 327h-436zM125 0h369v1075h-369v-1075z" />
<glyph unicode="&#xed;" horiz-adv-x="618" d="M125 0h369v1075h-369v-1075zM150 1219h262l321 327h-436z" />
<glyph unicode="&#xee;" horiz-adv-x="618" d="M-104 1188h241l170 131l170 -131h246l-268 328h-291zM125 0h369v1075h-369v-1075z" />
<glyph unicode="&#xef;" horiz-adv-x="618" d="M-117 1384q0 -35 15.5 -66.5t40 -56t57.5 -39t70 -14.5t69.5 14.5t57 39t40 56.5t15.5 66q0 37 -15.5 70t-40 57.5t-57.5 39t-69 14.5q-37 0 -70 -14.5t-57.5 -39t-40 -57.5t-15.5 -70zM125 0h369v1075h-369v-1075zM371 1384q0 -35 15 -66.5t40 -56t58.5 -39t70.5 -14.5 q35 0 67.5 14.5t57.5 39t40 56.5t15 66q0 37 -15 70t-40 57.5t-57.5 39t-67.5 14.5q-37 0 -70.5 -14.5t-58.5 -39t-40 -57.5t-15 -70z" />
<glyph unicode="&#xf0;" horiz-adv-x="1165" d="M72 467q0 -119 42 -210t112.5 -153.5t162.5 -94.5t193 -32q100 0 192 31t163 98.5t114 176t43 264.5q0 229 -61.5 409.5t-184.5 298.5l78 80l-148 121l-86 -88q-166 88 -391 88v-248q109 -6 197 -43l-66 -67l148 -121l82 86q45 -43 75.5 -95.5t42.5 -111.5 q-49 47 -114.5 67.5t-165.5 20.5q-72 0 -148 -29.5t-138 -89t-102 -148.5t-40 -210zM436 467q0 100 40 144t106 44t105.5 -44t39.5 -144q0 -98 -40 -144.5t-105 -46.5q-66 0 -106 46.5t-40 144.5z" />
<glyph unicode="&#xf1;" d="M115 0h368v614q0 102 33 137t92 35q57 0 90 -35.5t33 -140.5v-610h371v657q0 213 -85 327t-263 114q-96 0 -157.5 -28t-113.5 -66v71h-368v-1075zM193 1219h210q8 53 24.5 78.5t51.5 25.5q23 0 51.5 -16.5t73.5 -42.5q47 -29 86 -40.5t96 -11.5q61 0 111.5 25t85.5 68 t53.5 102t18.5 127h-211q-12 -104 -76 -104q-23 0 -51.5 16t-73.5 43q-47 29 -86 40t-96 11q-61 0 -111.5 -24.5t-85.5 -67.5t-53 -102t-18 -127z" />
<glyph unicode="&#xf2;" horiz-adv-x="1165" d="M72 539q0 -139 37.5 -244t105.5 -175.5t162 -106.5t205 -36t205 36t162.5 106.5t106.5 175t38 244.5q0 141 -38 245.5t-106.5 174t-163 104.5t-204.5 35q-111 0 -205 -35t-162 -104.5t-105.5 -174t-37.5 -245.5zM139 1546l322 -327h262l-148 327h-436zM436 539 q0 137 37 198.5t109 61.5t108.5 -61.5t36.5 -198.5q0 -262 -145 -263q-146 1 -146 263z" />
<glyph unicode="&#xf3;" horiz-adv-x="1165" d="M72 539q0 -139 37.5 -244t105.5 -175.5t162 -106.5t205 -36t205 36t162.5 106.5t106.5 175t38 244.5q0 141 -38 245.5t-106.5 174t-163 104.5t-204.5 35q-111 0 -205 -35t-162 -104.5t-105.5 -174t-37.5 -245.5zM432 1219h262l322 327h-436zM436 539q0 137 37 198.5 t109 61.5t108.5 -61.5t36.5 -198.5q0 -262 -145 -263q-146 1 -146 263z" />
<glyph unicode="&#xf4;" horiz-adv-x="1165" d="M72 539q0 -139 37.5 -244t105.5 -175.5t162 -106.5t205 -36t205 36t162.5 106.5t106.5 175t38 244.5q0 141 -38 245.5t-106.5 174t-163 104.5t-204.5 35q-111 0 -205 -35t-162 -104.5t-105.5 -174t-37.5 -245.5zM168 1198h242l170 131l170 -131h245l-268 328h-291z M436 539q0 137 37 198.5t109 61.5t108.5 -61.5t36.5 -198.5q0 -262 -145 -263q-146 1 -146 263z" />
<glyph unicode="&#xf5;" horiz-adv-x="1165" d="M72 539q0 -139 37.5 -244t105.5 -175.5t162 -106.5t205 -36t205 36t162.5 106.5t106.5 175t38 244.5q0 141 -38 245.5t-106.5 174t-163 104.5t-204.5 35q-111 0 -205 -35t-162 -104.5t-105.5 -174t-37.5 -245.5zM152 1219h210q8 53 24.5 78.5t51.5 25.5q23 0 51.5 -16.5 t73.5 -42.5q47 -29 86 -40.5t96 -11.5q61 0 111.5 25t85.5 68t53.5 102t18.5 127h-211q-12 -104 -76 -104q-23 0 -51.5 16t-73.5 43q-47 29 -86 40t-96 11q-61 0 -111.5 -24.5t-85.5 -67.5t-53 -102t-18 -127zM436 539q0 137 37 198.5t109 61.5t108.5 -61.5t36.5 -198.5 q0 -262 -145 -263q-146 1 -146 263z" />
<glyph unicode="&#xf6;" horiz-adv-x="1165" d="M72 539q0 -139 37.5 -244t105.5 -175.5t162 -106.5t205 -36t205 36t162.5 106.5t106.5 175t38 244.5q0 141 -38 245.5t-106.5 174t-163 104.5t-204.5 35q-111 0 -205 -35t-162 -104.5t-105.5 -174t-37.5 -245.5zM156 1384q0 -35 15 -66.5t40 -56t57.5 -39t69.5 -14.5 t69.5 14.5t57 39t40 56.5t15.5 66q0 37 -15.5 70t-40 57.5t-57 39t-69.5 14.5t-69.5 -14.5t-57.5 -39t-40 -57.5t-15 -70zM436 539q0 137 37 198.5t109 61.5t108.5 -61.5t36.5 -198.5q0 -262 -145 -263q-146 1 -146 263zM643 1384q0 -35 15.5 -66.5t40 -56t58.5 -39 t70 -14.5q35 0 68 14.5t57.5 39t40 56.5t15.5 66q0 37 -15.5 70t-40 57.5t-57.5 39t-68 14.5q-37 0 -70.5 -14.5t-58 -39t-40 -57.5t-15.5 -70z" />
<glyph unicode="&#xf7;" horiz-adv-x="1691" d="M31 725l325 -281q47 -39 82 -14q20 14 24.5 33.5t-3.5 54.5l-17 74h271v-232l-74 17q-35 8 -54.5 4t-33.5 -25q-25 -35 14 -82l281 -325l280 325q39 47 15 82q-14 20 -34 24.5t-54 -3.5l-74 -17v232h270l-16 -74q-8 -35 -4 -54.5t24 -33.5q35 -25 82 14l326 281l-326 281 q-47 39 -82 14q-20 -14 -24 -33.5t4 -54.5l16 -74h-270v215l74 -16q35 -8 54 -4t34 24q25 35 -15 82l-280 326l-281 -326q-39 -47 -14 -82q14 -20 33.5 -24t54.5 4l74 16v-215h-271l17 74q8 35 4 54.5t-25 33.5q-35 25 -82 -14z" />
<glyph unicode="&#xf8;" horiz-adv-x="1165" d="M33 -102h334l59 100q68 -20 156 -21q111 0 205 36t162.5 106.5t106.5 175t38 244.5q0 125 -31 221t-86 166l149 252h-333l-60 -99q-72 18 -151 19q-111 0 -205 -35t-162 -104.5t-105.5 -174t-37.5 -245.5q0 -123 29.5 -218.5t82.5 -166.5zM436 539q0 137 37 198.5 t109 61.5t108.5 -61.5t36.5 -198.5q0 -262 -145 -263q-146 1 -146 263z" />
<glyph unicode="&#xf9;" d="M106 418q0 -213 85 -327t264 -114q94 0 156.5 28t111.5 67v-72h371v1075h-371v-614q0 -102 -33 -137t-90 -35t-90 35.5t-33 140.5v610h-371v-657zM174 1546l322 -327h262l-148 327h-436z" />
<glyph unicode="&#xfa;" d="M106 418q0 -213 85 -327t264 -114q94 0 156.5 28t111.5 67v-72h371v1075h-371v-614q0 -102 -33 -137t-90 -35t-90 35.5t-33 140.5v610h-371v-657zM446 1219h263l321 327h-436z" />
<glyph unicode="&#xfb;" d="M106 418q0 -213 85 -327t264 -114q94 0 156.5 28t111.5 67v-72h371v1075h-371v-614q0 -102 -33 -137t-90 -35t-90 35.5t-33 140.5v610h-371v-657zM193 1219h241l170 131l170 -131h246l-268 327h-291z" />
<glyph unicode="&#xfc;" d="M106 418q0 -213 85 -327t264 -114q94 0 156.5 28t111.5 67v-72h371v1075h-371v-614q0 -102 -33 -137t-90 -35t-90 35.5t-33 140.5v610h-371v-657zM180 1405q0 -35 15.5 -66.5t40 -56.5t57.5 -39t69 -14q37 0 70 14t57.5 39t40 56.5t15.5 66.5q0 37 -15.5 69.5t-40 57 t-57.5 39t-70 14.5t-69.5 -14.5t-57 -39t-40 -57t-15.5 -69.5zM668 1405q0 -35 15 -66.5t40 -56.5t58.5 -39t70.5 -14q35 0 67.5 14t57 39t40 56.5t15.5 66.5q0 37 -15.5 69.5t-40 57t-57 39t-67.5 14.5q-37 0 -70.5 -14.5t-58.5 -39t-40 -57t-15 -69.5z" />
<glyph unicode="&#xfd;" d="M31 1075l409 -1120l-135 -334h352l521 1454h-387l-101 -379q-10 -35 -21.5 -86t-23.5 -104t-22.5 -105.5t-16.5 -91.5q-4 39 -14 90.5t-22.5 105.5t-25 103t-20.5 84l-102 383h-391zM479 1198h262l322 328h-436z" />
<glyph unicode="&#xfe;" horiz-adv-x="1171" d="M115 -395l368 147v320q45 -35 102.5 -65t137.5 -30q176 0 274.5 137.5t98.5 426.5q0 150 -28 255t-76 172.5t-113.5 98.5t-141.5 31q-86 0 -142 -28t-112 -71v494l-368 -147v-1741zM483 332v411q29 23 59.5 37.5t71.5 14.5q29 0 51.5 -11.5t37 -41t21.5 -82t7 -132.5 q0 -76 -7 -124t-21.5 -75.5t-36 -37.5t-50.5 -10q-43 0 -73.5 14t-59.5 37z" />
<glyph unicode="&#xff;" d="M31 1075l409 -1120l-135 -334h352l521 1454h-387l-101 -379q-10 -35 -21.5 -86t-23.5 -104t-22.5 -105.5t-16.5 -91.5q-4 39 -14 90.5t-22.5 105.5t-25 103t-20.5 84l-102 383h-391zM178 1384q0 -35 15.5 -66.5t40 -56t57.5 -39t69 -14.5q37 0 70 14.5t57.5 39t40 56.5 t15.5 66q0 37 -15.5 70t-40 57.5t-57.5 39t-70 14.5t-69.5 -14.5t-57 -39t-40 -57.5t-15.5 -70zM666 1384q0 -35 15 -66.5t39.5 -56t58.5 -39t71 -14.5q35 0 67.5 14.5t57 39t40 56.5t15.5 66q0 37 -15.5 70t-40 57.5t-57 39t-67.5 14.5q-37 0 -71 -14.5t-58.5 -39 t-39.5 -57.5t-15 -70z" />
<glyph unicode="&#x152;" horiz-adv-x="2177" d="M86 715q0 -178 49 -316.5t135 -231.5t204 -141.5t253 -48.5q117 0 211 39t152 117v-133h978v334h-698v246h404v329h-404v191h684v334h-964v-134q-57 78 -148.5 117t-210.5 39q-135 0 -253 -49t-205 -143.5t-137 -232.5t-50 -316zM498 719q0 195 64.5 293t185.5 98 t187 -100.5t66 -294.5q0 -195 -64.5 -293t-184.5 -98q-121 0 -187.5 100t-66.5 295z" />
<glyph unicode="&#x153;" horiz-adv-x="1765" d="M72 539q0 -139 37.5 -244t105.5 -175.5t159 -106.5t197 -36q119 0 194 43t134 113q25 -33 54.5 -61.5t68.5 -49t90 -33t123 -12.5q117 0 222.5 32t205.5 91l-141 236q-80 -41 -143.5 -58.5t-135.5 -17.5q-76 0 -124 41t-58 131h631q2 14 2 31v41q0 150 -34 261.5 t-95.5 185t-148.5 110.5t-191 37q-205 0 -320 -152q-104 152 -334 152q-106 0 -197 -35t-159 -104.5t-105.5 -174t-37.5 -245.5zM436 539q0 137 37 198.5t109 61.5t108.5 -61.5t36.5 -198.5q0 -262 -145 -263q-146 1 -146 263zM1061 662q18 164 143 163q82 0 116 -41 t48 -122h-307z" />
<glyph unicode="&#x178;" horiz-adv-x="1527" d="M33 1434l530 -906v-528h402v535l530 899h-455l-110 -217q-57 -113 -100.5 -210.5t-63.5 -160.5q-20 63 -63.5 160.5t-100.5 210.5l-110 217h-459zM338 1702q0 -35 15.5 -66.5t40 -56.5t57 -39t69.5 -14t70 14t57.5 39t39.5 56.5t15 66.5q0 37 -15 69.5t-39.5 57t-57.5 39 t-70 14.5t-69.5 -14.5t-57 -39t-40 -57t-15.5 -69.5zM825 1702q0 -35 15.5 -66.5t40 -56.5t58.5 -39t71 -14q35 0 67.5 14t57 39t40 56.5t15.5 66.5q0 37 -15.5 69.5t-40 57t-57.5 39t-67 14.5q-37 0 -71 -14.5t-58.5 -39t-40 -57t-15.5 -69.5z" />
<glyph unicode="&#x2c6;" horiz-adv-x="1024" d="M98 1219h242l170 131l170 -131h246l-269 327h-290z" />
<glyph unicode="&#x2dc;" horiz-adv-x="1024" d="M84 1219h211q8 53 24.5 78.5t51.5 25.5q23 0 51.5 -16.5t73.5 -42.5q47 -29 86 -40.5t96 -11.5q61 0 111.5 25t85 68t53 102t18.5 127h-211q-12 -104 -76 -104q-23 0 -51 16t-73 43q-47 29 -86 40t-97 11q-61 0 -111.5 -24.5t-85 -67.5t-53 -102t-18.5 -127z" />
<glyph unicode="&#x2000;" horiz-adv-x="946" />
<glyph unicode="&#x2001;" horiz-adv-x="1892" />
<glyph unicode="&#x2002;" horiz-adv-x="946" />
<glyph unicode="&#x2003;" horiz-adv-x="1892" />
<glyph unicode="&#x2004;" horiz-adv-x="630" />
<glyph unicode="&#x2005;" horiz-adv-x="473" />
<glyph unicode="&#x2006;" horiz-adv-x="315" />
<glyph unicode="&#x2007;" horiz-adv-x="315" />
<glyph unicode="&#x2008;" horiz-adv-x="235" />
<glyph unicode="&#x2009;" horiz-adv-x="376" />
<glyph unicode="&#x200a;" horiz-adv-x="104" />
<glyph unicode="&#x2010;" horiz-adv-x="991" d="M139 541h713v385h-713v-385z" />
<glyph unicode="&#x2011;" horiz-adv-x="991" d="M139 541h713v385h-713v-385z" />
<glyph unicode="&#x2012;" horiz-adv-x="991" d="M139 541h713v385h-713v-385z" />
<glyph unicode="&#x2013;" horiz-adv-x="1138" d="M139 549h860v369h-860v-369z" />
<glyph unicode="&#x2014;" horiz-adv-x="1343" d="M139 549h1065v369h-1065v-369z" />
<glyph unicode="&#x2018;" horiz-adv-x="663" d="M84 782h420l28 652h-251z" />
<glyph unicode="&#x2019;" horiz-adv-x="663" d="M131 782h252l197 652h-420z" />
<glyph unicode="&#x201a;" horiz-adv-x="663" d="M125 -223h252l196 651h-419z" />
<glyph unicode="&#x201c;" horiz-adv-x="1245" d="M84 782h420l28 652h-251zM666 782h419l29 652h-252z" />
<glyph unicode="&#x201d;" horiz-adv-x="1245" d="M131 782h252l197 652h-420zM713 782h252l196 652h-420z" />
<glyph unicode="&#x201e;" horiz-adv-x="1245" d="M125 -223h252l196 651h-419zM707 -223h251l197 651h-420z" />
<glyph unicode="&#x2022;" horiz-adv-x="1206" d="M133 750q0 -98 36 -184.5t99.5 -150t149.5 -99t184 -35.5q100 0 186 35.5t149.5 99t99.5 149.5t36 185q0 98 -36 185t-99.5 150.5t-149.5 100.5t-186 37q-98 0 -184 -37t-149.5 -100.5t-99.5 -150.5t-36 -185z" />
<glyph unicode="&#x2026;" horiz-adv-x="1929" d="M86 213q0 -102 66.5 -169t169.5 -67q102 0 168.5 67t66.5 169t-66.5 166.5t-168.5 64.5t-169 -64.5t-67 -166.5zM729 213q0 -102 66.5 -169t169.5 -67q102 0 168.5 67t66.5 169t-66.5 166.5t-168.5 64.5t-169 -64.5t-67 -166.5zM1372 213q0 -102 66.5 -169t169.5 -67 q102 0 168.5 67t66.5 169t-66.5 166.5t-168.5 64.5t-169 -64.5t-67 -166.5z" />
<glyph unicode="&#x202f;" horiz-adv-x="376" />
<glyph unicode="&#x2039;" horiz-adv-x="804" d="M61 537l261 -537h399l-268 539l268 536h-399z" />
<glyph unicode="&#x203a;" horiz-adv-x="804" d="M84 0h399l260 539l-260 536h-399l268 -538z" />
<glyph unicode="&#x205f;" horiz-adv-x="473" />
<glyph unicode="&#x20ac;" horiz-adv-x="1384" d="M84 717q0 -160 41 -295t121 -233.5t200.5 -155t280.5 -56.5q127 0 224.5 32t170 83t123.5 117.5t88 138.5l-315 162q-31 -53 -57.5 -92t-57.5 -64.5t-67.5 -39t-87.5 -13.5q-92 0 -150.5 44t-89.5 126h356v195h-389q-2 12 -2 24v27v41h391v194h-360q59 180 239 181 q53 0 91 -15.5t65 -44.5t47.5 -70.5t40.5 -93.5l322 125q-37 100 -83 179t-111.5 133.5t-160 82t-225.5 27.5q-145 0 -264 -51t-203 -146.5t-131 -232.5t-47 -309z" />
<glyph unicode="&#x2122;" horiz-adv-x="1718" d="M49 1241h225v-610h224v610h223v193h-672v-193zM848 631h207v192v113q0 53 -4 100q18 -45 44.5 -106.5t49.5 -104.5l104 -221l107 221q20 43 47 104.5t45 106.5q-4 -47 -4 -100v-113v-192h209v803h-203l-98 -213q-39 -84 -64.5 -146.5t-36.5 -97.5q-10 35 -37.5 100.5 t-64.5 143.5l-98 213h-203v-803z" />
<glyph unicode="&#xe000;" horiz-adv-x="1075" d="M0 1075h1075v-1075h-1075v1075z" />
<glyph unicode="&#xfb01;" horiz-adv-x="1392" d="M74 786h114v-786h363v786h160v289h-166v84q0 37 16.5 52.5t56.5 15.5q57 0 107 -23v238q-39 20 -100.5 32.5t-132.5 12.5q-158 0 -231 -70.5t-73 -236.5v-105h-114v-289zM872 1335q0 -86 59.5 -134t151.5 -48q96 0 155.5 48t59.5 134q0 78 -59 128t-156 50 q-92 0 -151.5 -50t-59.5 -128zM899 0h369v1075h-369v-1075z" />
<glyph unicode="&#xfb02;" horiz-adv-x="1392" d="M74 786h114v-786h363v786h160v289h-166v84q0 37 16.5 52.5t56.5 15.5q57 0 107 -23v238q-39 20 -100.5 32.5t-132.5 12.5q-158 0 -231 -70.5t-73 -236.5v-105h-114v-289zM899 0h369v1493l-369 -147v-1346z" />
<glyph unicode="&#xfb03;" horiz-adv-x="2187" d="M1667 1335q0 -86 59.5 -134t151.5 -48q96 0 155.5 48t59.5 134q0 78 -59 128t-156 50q-92 0 -151.5 -50t-59.5 -128zM1694 0h369v1075h-369v-1075zM858 786h114v-786h363v786h160v289h-166v84q0 37 16.5 52.5t56.5 15.5q57 0 107 -23v238q-39 20 -100.5 32.5t-132.5 12.5 q-158 0 -231 -70.5t-73 -236.5v-105h-114v-289zM74 786h114v-786h363v786h160v289h-166v84q0 37 16.5 52.5t56.5 15.5q57 0 107 -23v238q-39 20 -100.5 32.5t-132.5 12.5q-158 0 -231 -70.5t-73 -236.5v-105h-114v-289z" />
<glyph unicode="&#xfb04;" horiz-adv-x="2187" d="M1694 0h369v1493l-369 -147v-1346zM858 786h114v-786h363v786h160v289h-166v84q0 37 16.5 52.5t56.5 15.5q57 0 107 -23v238q-39 20 -100.5 32.5t-132.5 12.5q-158 0 -231 -70.5t-73 -236.5v-105h-114v-289zM74 786h114v-786h363v786h160v289h-166v84q0 37 16.5 52.5 t56.5 15.5q57 0 107 -23v238q-39 20 -100.5 32.5t-132.5 12.5q-158 0 -231 -70.5t-73 -236.5v-105h-114v-289z" />
</font>
</defs>
</svg>
